<svg viewBox="0 0 1000 1000" xmlns="http://www.w3.org/2000/svg"><defs>
<linearGradient id="bg" x1="0" y1="0" x2="1" y2="1"><stop offset="0" stop-color="#16314A"/><stop offset="1" stop-color="#0A1521"/></linearGradient>
<radialGradient id="glow" cx="0.5" cy="0.5" r="0.5"><stop offset="0" stop-color="#E9A23B" stop-opacity="0.20"/><stop offset="1" stop-color="#E9A23B" stop-opacity="0"/></radialGradient>
<linearGradient id="gold" x1="0" y1="0" x2="0" y2="1"><stop offset="0" stop-color="#F4BE68"/><stop offset="1" stop-color="#C9852A"/></linearGradient>
<linearGradient id="bar" x1="0" y1="1" x2="0" y2="0"><stop offset="0" stop-color="#B9772094" stop-opacity="0.55"/><stop offset="1" stop-color="#F4BE68"/></linearGradient>
<linearGradient id="panel" x1="0" y1="0" x2="0" y2="1"><stop offset="0" stop-color="#143049"/><stop offset="1" stop-color="#0C1D2E"/></linearGradient>
<pattern id="dots" width="36" height="36" patternUnits="userSpaceOnUse"><circle cx="2" cy="2" r="1.5" fill="#FFFFFF" opacity="0.045"/></pattern>
</defs><rect width="1000" height="1000" fill="url(#bg)"/><rect width="1000" height="1000" fill="url(#dots)"/><path d="M950.0 240.0 L811.4 160.0 L811.4 -0.0 L950.0 -80.0 L1088.6 -0.0 L1088.6 160.0 Z" fill="none" stroke="#E9A23B" stroke-opacity="0.10" stroke-width="2"/><path d="M60.0 1060.0 L-43.9 1000.0 L-43.9 880.0 L60.0 820.0 L163.9 880.0 L163.9 1000.0 Z" fill="none" stroke="#E9A23B" stroke-opacity="0.07" stroke-width="2"/><circle cx="500" cy="470" r="350" fill="url(#glow)"/><line x1="180" y1="170" x2="180" y2="780" stroke="#FFFFFF" stroke-opacity="0.04" stroke-width="1"/><line x1="248" y1="170" x2="248" y2="780" stroke="#FFFFFF" stroke-opacity="0.04" stroke-width="1"/><line x1="316" y1="170" x2="316" y2="780" stroke="#FFFFFF" stroke-opacity="0.04" stroke-width="1"/><line x1="384" y1="170" x2="384" y2="780" stroke="#FFFFFF" stroke-opacity="0.04" stroke-width="1"/><line x1="452" y1="170" x2="452" y2="780" stroke="#FFFFFF" stroke-opacity="0.04" stroke-width="1"/><line x1="520" y1="170" x2="520" y2="780" stroke="#FFFFFF" stroke-opacity="0.04" stroke-width="1"/><line x1="588" y1="170" x2="588" y2="780" stroke="#FFFFFF" stroke-opacity="0.04" stroke-width="1"/><line x1="656" y1="170" x2="656" y2="780" stroke="#FFFFFF" stroke-opacity="0.04" stroke-width="1"/><line x1="724" y1="170" x2="724" y2="780" stroke="#FFFFFF" stroke-opacity="0.04" stroke-width="1"/><line x1="792" y1="170" x2="792" y2="780" stroke="#FFFFFF" stroke-opacity="0.04" stroke-width="1"/><line x1="170" y1="190" x2="840" y2="190" stroke="#FFFFFF" stroke-opacity="0.04" stroke-width="1"/><line x1="170" y1="258" x2="840" y2="258" stroke="#FFFFFF" stroke-opacity="0.04" stroke-width="1"/><line x1="170" y1="326" x2="840" y2="326" stroke="#FFFFFF" stroke-opacity="0.04" stroke-width="1"/><line x1="170" y1="394" x2="840" y2="394" stroke="#FFFFFF" stroke-opacity="0.04" stroke-width="1"/><line x1="170" y1="462" x2="840" y2="462" stroke="#FFFFFF" stroke-opacity="0.04" stroke-width="1"/><line x1="170" y1="530" x2="840" y2="530" stroke="#FFFFFF" stroke-opacity="0.04" stroke-width="1"/><line x1="170" y1="598" x2="840" y2="598" stroke="#FFFFFF" stroke-opacity="0.04" stroke-width="1"/><line x1="170" y1="666" x2="840" y2="666" stroke="#FFFFFF" stroke-opacity="0.04" stroke-width="1"/><line x1="170" y1="734" x2="840" y2="734" stroke="#FFFFFF" stroke-opacity="0.04" stroke-width="1"/><path d="M320 360 C300 300 380 250 470 270 C520 240 620 250 650 320 C720 330 740 420 700 470 C730 540 660 600 590 590 C560 660 450 670 410 610 C330 620 280 540 320 480 C280 440 290 390 320 360 Z" fill="#1B3650" stroke="#000000" stroke-width="0"/><path d="M320 360 C300 300 380 250 470 270 C520 240 620 250 650 320 C720 330 740 420 700 470 C730 540 660 600 590 590 C560 660 450 670 410 610 C330 620 280 540 320 480 C280 440 290 390 320 360 Z" fill="none" stroke="#5E86A6" stroke-width="2" opacity="0.8"/><path d="M360 430 L470 400 L560 470 L650 440" fill="none" stroke="#9FB8CC" stroke-width="2" stroke-dasharray="2 7" stroke-linecap="round" opacity="0.8"/><line x1="470" y1="400" x2="560" y2="470" stroke="#C9852A" stroke-width="1.4" opacity="0.55"/><line x1="560" y1="470" x2="650" y2="440" stroke="#C9852A" stroke-width="1.4" opacity="0.55"/><line x1="650" y1="440" x2="420" y2="520" stroke="#C9852A" stroke-width="1.4" opacity="0.55"/><line x1="420" y1="520" x2="600" y2="560" stroke="#C9852A" stroke-width="1.4" opacity="0.55"/><circle cx="470" cy="400" r="34" fill="none" stroke="#E9A23B" stroke-width="2" opacity="0.35"/><circle cx="470" cy="400" r="22" fill="none" stroke="#E9A23B" stroke-width="2" opacity="0.6"/><path d="M470 374 C454 374 454 396 470 406 C486 396 486 374 470 374 Z" fill="url(#gold)"/><circle cx="470" cy="384" r="6" fill="#0E2236"/><path d="M560 444 C544 444 544 466 560 476 C576 466 576 444 560 444 Z" fill="url(#gold)"/><circle cx="560" cy="454" r="6" fill="#0E2236"/><path d="M650 414 C634 414 634 436 650 446 C666 436 666 414 650 414 Z" fill="url(#gold)"/><circle cx="650" cy="424" r="6" fill="#0E2236"/><path d="M420 494 C404 494 404 516 420 526 C436 516 436 494 420 494 Z" fill="url(#gold)"/><circle cx="420" cy="504" r="6" fill="#0E2236"/><path d="M600 534 C584 534 584 556 600 566 C616 556 616 534 600 534 Z" fill="url(#gold)"/><circle cx="600" cy="544" r="6" fill="#0E2236"/><g opacity="0.7"><circle cx="700" cy="300" r="26" fill="none" stroke="#9FB8CC" stroke-width="1.6"/><line x1="700" y1="266" x2="700" y2="334" stroke="#9FB8CC" stroke-width="1.6"/><line x1="666" y1="300" x2="734" y2="300" stroke="#9FB8CC" stroke-width="1.6"/></g></svg>