<svg viewBox="0 0 1000 1000" xmlns="http://www.w3.org/2000/svg"><defs>
<linearGradient id="bg" x1="0" y1="0" x2="1" y2="1"><stop offset="0" stop-color="#173450"/><stop offset="0.55" stop-color="#0E2236"/><stop offset="1" stop-color="#080F1A"/></linearGradient>
<linearGradient id="gold" x1="0" y1="0" x2="0" y2="1"><stop offset="0" stop-color="#F8CE82"/><stop offset="1" stop-color="#C9852A"/></linearGradient>
<linearGradient id="teal" x1="0" y1="0" x2="0" y2="1"><stop offset="0" stop-color="#6FE6DA"/><stop offset="1" stop-color="#2C9D93"/></linearGradient>
<linearGradient id="glass" x1="0" y1="0" x2="0" y2="1"><stop offset="0" stop-color="#21425E"/><stop offset="1" stop-color="#0D2032"/></linearGradient>
<linearGradient id="glass2" x1="0" y1="0" x2="0" y2="1"><stop offset="0" stop-color="#1A3A54"/><stop offset="1" stop-color="#0B1B2B"/></linearGradient>
<linearGradient id="sheen" x1="0" y1="0" x2="0" y2="1"><stop offset="0" stop-color="#FFFFFF" stop-opacity="0.12"/><stop offset="1" stop-color="#FFFFFF" stop-opacity="0"/></linearGradient>
<linearGradient id="goldArea" x1="0" y1="0" x2="0" y2="1"><stop offset="0" stop-color="#F4BE68" stop-opacity="0.34"/><stop offset="1" stop-color="#F4BE68" stop-opacity="0"/></linearGradient>
<linearGradient id="tealArea" x1="0" y1="0" x2="0" y2="1"><stop offset="0" stop-color="#46D6C9" stop-opacity="0.30"/><stop offset="1" stop-color="#46D6C9" stop-opacity="0"/></linearGradient>
<radialGradient id="glowGold" cx="0.5" cy="0.5" r="0.5"><stop offset="0" stop-color="#E9A23B" stop-opacity="0.30"/><stop offset="1" stop-color="#E9A23B" stop-opacity="0"/></radialGradient>
<radialGradient id="glowTeal" cx="0.5" cy="0.5" r="0.5"><stop offset="0" stop-color="#46D6C9" stop-opacity="0.22"/><stop offset="1" stop-color="#46D6C9" stop-opacity="0"/></radialGradient>
<pattern id="dots" width="32" height="32" patternUnits="userSpaceOnUse"><circle cx="1.5" cy="1.5" r="1.3" fill="#FFFFFF" opacity="0.05"/></pattern>
</defs><rect width="1000" height="1000" fill="url(#bg)"/><rect width="1000" height="1000" fill="url(#dots)"/><line x1="500" y1="640" x2="-220" y2="1000" stroke="#46D6C9" stroke-opacity="0.05" stroke-width="1"/><line x1="500" y1="640" x2="-100" y2="1000" stroke="#46D6C9" stroke-opacity="0.05" stroke-width="1"/><line x1="500" y1="640" x2="20" y2="1000" stroke="#46D6C9" stroke-opacity="0.05" stroke-width="1"/><line x1="500" y1="640" x2="140" y2="1000" stroke="#46D6C9" stroke-opacity="0.05" stroke-width="1"/><line x1="500" y1="640" x2="260" y2="1000" stroke="#46D6C9" stroke-opacity="0.05" stroke-width="1"/><line x1="500" y1="640" x2="380" y2="1000" stroke="#46D6C9" stroke-opacity="0.05" stroke-width="1"/><line x1="500" y1="640" x2="500" y2="1000" stroke="#46D6C9" stroke-opacity="0.05" stroke-width="1"/><line x1="500" y1="640" x2="620" y2="1000" stroke="#46D6C9" stroke-opacity="0.05" stroke-width="1"/><line x1="500" y1="640" x2="740" y2="1000" stroke="#46D6C9" stroke-opacity="0.05" stroke-width="1"/><line x1="500" y1="640" x2="860" y2="1000" stroke="#46D6C9" stroke-opacity="0.05" stroke-width="1"/><line x1="500" y1="640" x2="980" y2="1000" stroke="#46D6C9" stroke-opacity="0.05" stroke-width="1"/><line x1="500" y1="640" x2="1100" y2="1000" stroke="#46D6C9" stroke-opacity="0.05" stroke-width="1"/><line x1="500" y1="640" x2="1220" y2="1000" stroke="#46D6C9" stroke-opacity="0.05" stroke-width="1"/><line x1="0" y1="720" x2="1000" y2="720" stroke="#46D6C9" stroke-opacity="0.06" stroke-width="1"/><line x1="0" y1="800" x2="1000" y2="800" stroke="#46D6C9" stroke-opacity="0.05" stroke-width="1"/><line x1="0" y1="890" x2="1000" y2="890" stroke="#46D6C9" stroke-opacity="0.04" stroke-width="1"/><line x1="0" y1="1000" x2="1000" y2="1000" stroke="#46D6C9" stroke-opacity="0.03" stroke-width="1"/><path d="M930.0 240.0 L800.1 165.0 L800.1 15.0 L930.0 -60.0 L1059.9 15.0 L1059.9 165.0 Z" fill="none" stroke="#E9A23B" stroke-opacity="0.10" stroke-width="2"/><path d="M80.0 1030.0 L-15.3 975.0 L-15.3 865.0 L80.0 810.0 L175.3 865.0 L175.3 975.0 Z" fill="none" stroke="#46D6C9" stroke-opacity="0.10" stroke-width="2"/><circle cx="780" cy="210" r="360" fill="url(#glowGold)"/><circle cx="200" cy="800" r="340" fill="url(#glowTeal)"/><circle cx="454" cy="557" r="2" fill="#FFFFFF" opacity="0.13"/><circle cx="197" cy="511" r="2.5" fill="#FFFFFF" opacity="0.18"/><circle cx="449" cy="156" r="2.5" fill="#FFFFFF" opacity="0.19"/><circle cx="592" cy="400" r="2" fill="#FFFFFF" opacity="0.16"/><circle cx="618" cy="818" r="1" fill="#FFFFFF" opacity="0.06"/><circle cx="864" cy="596" r="2" fill="#FFFFFF" opacity="0.11"/><circle cx="518" cy="635" r="2" fill="#FFFFFF" opacity="0.05"/><circle cx="459" cy="287" r="2.5" fill="#FFFFFF" opacity="0.22"/><circle cx="699" cy="323" r="1" fill="#FFFFFF" opacity="0.14"/><circle cx="87" cy="756" r="2" fill="#F4BE68" opacity="0.07"/><circle cx="391" cy="940" r="1" fill="#FFFFFF" opacity="0.09"/><circle cx="471" cy="961" r="2" fill="#FFFFFF" opacity="0.12"/><circle cx="767" cy="279" r="1" fill="#FFFFFF" opacity="0.10"/><circle cx="946" cy="748" r="1" fill="#FFFFFF" opacity="0.07"/><circle cx="31" cy="466" r="2" fill="#FFFFFF" opacity="0.08"/><circle cx="450" cy="203" r="1" fill="#46D6C9" opacity="0.12"/><circle cx="132" cy="424" r="1" fill="#F4BE68" opacity="0.05"/><circle cx="978" cy="39" r="1" fill="#FFFFFF" opacity="0.12"/><circle cx="60" cy="161" r="2" fill="#F4BE68" opacity="0.09"/><circle cx="817" cy="391" r="1" fill="#FFFFFF" opacity="0.07"/><circle cx="35" cy="374" r="2.5" fill="#46D6C9" opacity="0.13"/><circle cx="819" cy="150" r="2" fill="#FFFFFF" opacity="0.08"/><circle cx="318" cy="239" r="2.5" fill="#FFFFFF" opacity="0.09"/><circle cx="172" cy="624" r="2.5" fill="#46D6C9" opacity="0.08"/><circle cx="867" cy="599" r="2" fill="#FFFFFF" opacity="0.06"/><circle cx="57" cy="944" r="1" fill="#46D6C9" opacity="0.18"/><circle cx="267" cy="811" r="2.5" fill="#FFFFFF" opacity="0.13"/><circle cx="912" cy="958" r="1" fill="#FFFFFF" opacity="0.09"/><circle cx="289" cy="901" r="1" fill="#FFFFFF" opacity="0.18"/><circle cx="278" cy="448" r="1" fill="#F4BE68" opacity="0.06"/><circle cx="374" cy="569" r="1" fill="#FFFFFF" opacity="0.07"/><circle cx="875" cy="961" r="2.5" fill="#FFFFFF" opacity="0.15"/><circle cx="586" cy="907" r="2" fill="#F4BE68" opacity="0.20"/><circle cx="944" cy="40" r="1" fill="#F4BE68" opacity="0.13"/><circle cx="326" cy="979" r="1" fill="#F4BE68" opacity="0.13"/><circle cx="728" cy="884" r="1" fill="#F4BE68" opacity="0.18"/><circle cx="358" cy="678" r="1" fill="#46D6C9" opacity="0.20"/><circle cx="926" cy="49" r="2" fill="#46D6C9" opacity="0.15"/><circle cx="384" cy="32" r="1" fill="#FFFFFF" opacity="0.06"/><circle cx="974" cy="865" r="1.5" fill="#46D6C9" opacity="0.12"/><circle cx="443" cy="825" r="1" fill="#FFFFFF" opacity="0.14"/><circle cx="318" cy="104" r="1" fill="#FFFFFF" opacity="0.09"/><circle cx="497" cy="610" r="2" fill="#FFFFFF" opacity="0.09"/><circle cx="373" cy="157" r="2.5" fill="#FFFFFF" opacity="0.08"/><circle cx="744" cy="349" r="2" fill="#FFFFFF" opacity="0.13"/><circle cx="334" cy="659" r="1" fill="#FFFFFF" opacity="0.16"/><line x1="300" y1="300" x2="360" y2="430" stroke="#46D6C9" stroke-width="1.4" opacity="0.5" stroke-dasharray="1 6" stroke-linecap="round"/><line x1="760" y1="720" x2="640" y2="600" stroke="#F4BE68" stroke-width="1.4" opacity="0.5" stroke-dasharray="1 6" stroke-linecap="round"/><rect x="153" y="220" width="210" height="170" rx="16" fill="#05090F" opacity="0.33"/><rect x="150" y="210" width="210" height="170" rx="16" fill="url(#glass2)" stroke="#36567400" stroke-opacity="0" /><rect x="150" y="210" width="210" height="170" rx="16" fill="none" stroke="#3A5C7A" stroke-width="1.3" opacity="0.9"/><rect x="151.3" y="211.3" width="207.4" height="85" rx="16" fill="url(#sheen)"/><circle cx="166" cy="225" r="5" fill="#ED6A5E"/><circle cx="184" cy="225" r="5" fill="#F4BE4F"/><circle cx="202" cy="225" r="5" fill="#61C554"/><rect x="268" y="218" width="64" height="14" rx="7" fill="#F4BE68" opacity="0.20"/><rect x="338" y="218" width="14" height="14" rx="4" fill="#2E4A64"/><line x1="150" y1="241" x2="360" y2="241" stroke="#274460" stroke-width="1.2"/><path d="M185 300 C180 280 215 270 245 282 C270 272 300 282 300 305 C318 312 312 345 290 350 C285 372 250 372 238 358 C210 362 188 345 196 325 C182 318 180 308 185 300 Z" fill="#16314A" stroke="#4E7A96" stroke-width="1.5"/><path d="M230 303 C222 303 222 313 230 317 C238 313 238 303 230 303 Z" fill="url(#gold)"/><path d="M270 318 C262 318 262 328 270 332 C278 328 278 318 270 318 Z" fill="url(#gold)"/><path d="M255 343 C247 343 247 353 255 357 C263 353 263 343 255 343 Z" fill="url(#gold)"/><rect x="358" y="310" width="500" height="430" rx="20" fill="#05090F" opacity="0.33"/><rect x="355" y="300" width="500" height="430" rx="20" fill="url(#glass)" stroke="#36567400" stroke-opacity="0" /><rect x="355" y="300" width="500" height="430" rx="20" fill="none" stroke="#3A5C7A" stroke-width="1.3" opacity="0.9"/><rect x="356.3" y="301.3" width="497.4" height="215" rx="20" fill="url(#sheen)"/><circle cx="371" cy="315" r="5" fill="#ED6A5E"/><circle cx="389" cy="315" r="5" fill="#F4BE4F"/><circle cx="407" cy="315" r="5" fill="#61C554"/><rect x="763" y="308" width="64" height="14" rx="7" fill="#F4BE68" opacity="0.20"/><rect x="833" y="308" width="14" height="14" rx="4" fill="#2E4A64"/><line x1="355" y1="331" x2="855" y2="331" stroke="#274460" stroke-width="1.2"/><line x1="385" y1="396" x2="705" y2="396" stroke="#FFFFFF" stroke-opacity="0.05" stroke-width="1"/><line x1="385" y1="433" x2="705" y2="433" stroke="#FFFFFF" stroke-opacity="0.05" stroke-width="1"/><line x1="385" y1="470" x2="705" y2="470" stroke="#FFFFFF" stroke-opacity="0.05" stroke-width="1"/><path d="M385 508 L385 463 L431 433 L476 445 L522 415 L568 426 L614 391 L659 403 L705 370 L705 508 Z" fill="url(#goldArea)"/><polyline points="385,463 431,433 476,445 522,415 568,426 614,391 659,403 705,370" fill="none" stroke="#F4BE68" stroke-width="3" stroke-linecap="round" stroke-linejoin="round"/><circle cx="385" cy="463" r="3.6" fill="#0E2236" stroke="#F4BE68" stroke-width="2"/><circle cx="476" cy="445" r="3.6" fill="#0E2236" stroke="#F4BE68" stroke-width="2"/><circle cx="568" cy="426" r="3.6" fill="#0E2236" stroke="#F4BE68" stroke-width="2"/><circle cx="659" cy="403" r="3.6" fill="#0E2236" stroke="#F4BE68" stroke-width="2"/><path d="M777.0 389.0 A46 46 0 0 1 791.2 478.7" fill="none" stroke="#F4BE68" stroke-width="13" stroke-linecap="butt"/><path d="M791.2 478.7 A46 46 0 0 1 731.0 435.0" fill="none" stroke="#46D6C9" stroke-width="13" stroke-linecap="butt"/><path d="M731.0 435.0 A46 46 0 0 1 777.0 389.0" fill="none" stroke="#3A5670" stroke-width="13" stroke-linecap="butt"/><circle cx="777" cy="435" r="26" fill="none" stroke="#2E4A64" stroke-width="1"/><rect x="388.0" y="542" width="134.66666666666666" height="84" rx="12" fill="#05090F" opacity="0.33"/><rect x="385.0" y="532" width="134.66666666666666" height="84" rx="12" fill="url(#glass2)" stroke="#36567400" stroke-opacity="0" /><rect x="385.0" y="532" width="134.66666666666666" height="84" rx="12" fill="none" stroke="#3A5C7A" stroke-width="1.3" opacity="0.9"/><rect x="386.3" y="533.3" width="132.06666666666666" height="42" rx="12" fill="url(#sheen)"/><circle cx="401.0" cy="550" r="5" fill="#F4BE68"/><rect x="413.0" y="545" width="38" height="9" rx="4" fill="#F4BE68"/><rect x="401.0" y="596" width="94.66666666666666" height="6" rx="3" fill="#3A5670"/><polyline points="401,586 422,579 442,572 463,583 483,576 504,569" fill="none" stroke="#F4BE68" stroke-width="2" opacity="0.7"/><rect x="538.6666666666666" y="542" width="134.66666666666666" height="84" rx="12" fill="#05090F" opacity="0.33"/><rect x="535.6666666666666" y="532" width="134.66666666666666" height="84" rx="12" fill="url(#glass2)" stroke="#36567400" stroke-opacity="0" /><rect x="535.6666666666666" y="532" width="134.66666666666666" height="84" rx="12" fill="none" stroke="#3A5C7A" stroke-width="1.3" opacity="0.9"/><rect x="536.9666666666666" y="533.3" width="132.06666666666666" height="42" rx="12" fill="url(#sheen)"/><circle cx="551.6666666666666" cy="550" r="5" fill="#46D6C9"/><rect x="563.6666666666666" y="545" width="38" height="9" rx="4" fill="#F4BE68"/><rect x="551.6666666666666" y="596" width="94.66666666666666" height="6" rx="3" fill="#3A5670"/><polyline points="552,586 572,579 593,572 613,583 634,576 654,569" fill="none" stroke="#46D6C9" stroke-width="2" opacity="0.7"/><rect x="685.3333333333333" y="542" width="134.66666666666666" height="84" rx="12" fill="#05090F" opacity="0.33"/><rect x="682.3333333333333" y="532" width="134.66666666666666" height="84" rx="12" fill="url(#glass2)" stroke="#36567400" stroke-opacity="0" /><rect x="682.3333333333333" y="532" width="134.66666666666666" height="84" rx="12" fill="none" stroke="#3A5C7A" stroke-width="1.3" opacity="0.9"/><rect x="683.6333333333332" y="533.3" width="132.06666666666666" height="42" rx="12" fill="url(#sheen)"/><circle cx="698.3333333333333" cy="550" r="5" fill="#5AB6E8"/><rect x="710.3333333333333" y="545" width="38" height="9" rx="4" fill="#F4BE68"/><rect x="698.3333333333333" y="596" width="94.66666666666666" height="6" rx="3" fill="#3A5670"/><polyline points="698,586 719,579 739,572 760,583 780,576 801,569" fill="none" stroke="#5AB6E8" stroke-width="2" opacity="0.7"/><line x1="385" y1="700" x2="825" y2="700" stroke="#274460" stroke-width="1.4"/><rect x="396" y="677" width="27" height="23" rx="3" fill="#F4BE68" opacity="0.92"/><rect x="445" y="665" width="27" height="35" rx="3" fill="#46D6C9" opacity="0.92"/><rect x="494" y="671" width="27" height="29" rx="3" fill="#46D6C9" opacity="0.92"/><rect x="542" y="654" width="27" height="46" rx="3" fill="#F4BE68" opacity="0.92"/><rect x="591" y="668" width="27" height="32" rx="3" fill="#46D6C9" opacity="0.92"/><rect x="640" y="648" width="27" height="52" rx="3" fill="#46D6C9" opacity="0.92"/><rect x="689" y="659" width="27" height="41" rx="3" fill="#F4BE68" opacity="0.92"/><rect x="738" y="664" width="27" height="36" rx="3" fill="#46D6C9" opacity="0.92"/><rect x="787" y="651" width="27" height="49" rx="3" fill="#46D6C9" opacity="0.92"/><rect x="623" y="570" width="250" height="180" rx="16" fill="#05090F" opacity="0.33"/><rect x="620" y="560" width="250" height="180" rx="16" fill="url(#glass2)" stroke="#36567400" stroke-opacity="0" /><rect x="620" y="560" width="250" height="180" rx="16" fill="none" stroke="#3A5C7A" stroke-width="1.3" opacity="0.9"/><rect x="621.3" y="561.3" width="247.4" height="90" rx="16" fill="url(#sheen)"/><circle cx="636" cy="575" r="5" fill="#ED6A5E"/><circle cx="654" cy="575" r="5" fill="#F4BE4F"/><circle cx="672" cy="575" r="5" fill="#61C554"/><rect x="778" y="568" width="64" height="14" rx="7" fill="#F4BE68" opacity="0.20"/><rect x="848" y="568" width="14" height="14" rx="4" fill="#2E4A64"/><line x1="620" y1="591" x2="870" y2="591" stroke="#274460" stroke-width="1.2"/><rect x="638" y="610" width="14" height="14" rx="4" fill="none" stroke="#F4BE68" stroke-width="2"/><path d="M641 617 l3 4 l6 -8" fill="none" stroke="#F4BE68" stroke-width="2" stroke-linecap="round" stroke-linejoin="round"/><rect x="664" y="612" width="140" height="7" rx="3" fill="#3A5670"/><rect x="824" y="610" width="30" height="12" rx="6" fill="#46D6C9" opacity="0.5"/><rect x="638" y="640" width="14" height="14" rx="4" fill="none" stroke="#F4BE68" stroke-width="2"/><path d="M641 647 l3 4 l6 -8" fill="none" stroke="#F4BE68" stroke-width="2" stroke-linecap="round" stroke-linejoin="round"/><rect x="664" y="642" width="140" height="7" rx="3" fill="#3A5670"/><rect x="824" y="640" width="30" height="12" rx="6" fill="#46D6C9" opacity="0.5"/><rect x="638" y="670" width="14" height="14" rx="4" fill="none" stroke="#F4BE68" stroke-width="2"/><path d="M641 677 l3 4 l6 -8" fill="none" stroke="#F4BE68" stroke-width="2" stroke-linecap="round" stroke-linejoin="round"/><rect x="664" y="672" width="140" height="7" rx="3" fill="#3A5670"/><rect x="824" y="670" width="30" height="12" rx="6" fill="#46D6C9" opacity="0.5"/><rect x="638" y="700" width="14" height="14" rx="4" fill="none" stroke="#F4BE68" stroke-width="2"/><path d="M641 707 l3 4 l6 -8" fill="none" stroke="#F4BE68" stroke-width="2" stroke-linecap="round" stroke-linejoin="round"/><rect x="664" y="702" width="140" height="7" rx="3" fill="#3A5670"/><rect x="824" y="700" width="30" height="12" rx="6" fill="#46D6C9" opacity="0.5"/><rect x="56" y="58" width="34" height="5" rx="2.5" fill="url(#gold)"/><text x="57" y="103" font-family="'Segoe UI',Roboto,'Helvetica Neue',Arial,sans-serif" font-size="32" font-weight="700" letter-spacing="1.5" fill="#0A1521" opacity="0.55">ASSET MANAGEMENT</text><text x="56" y="101" font-family="'Segoe UI',Roboto,'Helvetica Neue',Arial,sans-serif" font-size="32" font-weight="700" letter-spacing="1.5" fill="#FFFFFF">ASSET MANAGEMENT</text></svg>