<svg viewBox="0 0 1000 1000" xmlns="http://www.w3.org/2000/svg"><defs>
<linearGradient id="bg" x1="0" y1="0" x2="1" y2="1"><stop offset="0" stop-color="#173450"/><stop offset="0.55" stop-color="#0E2236"/><stop offset="1" stop-color="#080F1A"/></linearGradient>
<linearGradient id="gold" x1="0" y1="0" x2="0" y2="1"><stop offset="0" stop-color="#F8CE82"/><stop offset="1" stop-color="#C9852A"/></linearGradient>
<linearGradient id="teal" x1="0" y1="0" x2="0" y2="1"><stop offset="0" stop-color="#6FE6DA"/><stop offset="1" stop-color="#2C9D93"/></linearGradient>
<linearGradient id="glass" x1="0" y1="0" x2="0" y2="1"><stop offset="0" stop-color="#21425E"/><stop offset="1" stop-color="#0D2032"/></linearGradient>
<linearGradient id="glass2" x1="0" y1="0" x2="0" y2="1"><stop offset="0" stop-color="#1A3A54"/><stop offset="1" stop-color="#0B1B2B"/></linearGradient>
<linearGradient id="sheen" x1="0" y1="0" x2="0" y2="1"><stop offset="0" stop-color="#FFFFFF" stop-opacity="0.12"/><stop offset="1" stop-color="#FFFFFF" stop-opacity="0"/></linearGradient>
<linearGradient id="goldArea" x1="0" y1="0" x2="0" y2="1"><stop offset="0" stop-color="#F4BE68" stop-opacity="0.34"/><stop offset="1" stop-color="#F4BE68" stop-opacity="0"/></linearGradient>
<linearGradient id="tealArea" x1="0" y1="0" x2="0" y2="1"><stop offset="0" stop-color="#46D6C9" stop-opacity="0.30"/><stop offset="1" stop-color="#46D6C9" stop-opacity="0"/></linearGradient>
<radialGradient id="glowGold" cx="0.5" cy="0.5" r="0.5"><stop offset="0" stop-color="#E9A23B" stop-opacity="0.30"/><stop offset="1" stop-color="#E9A23B" stop-opacity="0"/></radialGradient>
<radialGradient id="glowTeal" cx="0.5" cy="0.5" r="0.5"><stop offset="0" stop-color="#46D6C9" stop-opacity="0.22"/><stop offset="1" stop-color="#46D6C9" stop-opacity="0"/></radialGradient>
<pattern id="dots" width="32" height="32" patternUnits="userSpaceOnUse"><circle cx="1.5" cy="1.5" r="1.3" fill="#FFFFFF" opacity="0.05"/></pattern>
</defs><rect width="1000" height="1000" fill="url(#bg)"/><rect width="1000" height="1000" fill="url(#dots)"/><line x1="500" y1="640" x2="-220" y2="1000" stroke="#46D6C9" stroke-opacity="0.05" stroke-width="1"/><line x1="500" y1="640" x2="-100" y2="1000" stroke="#46D6C9" stroke-opacity="0.05" stroke-width="1"/><line x1="500" y1="640" x2="20" y2="1000" stroke="#46D6C9" stroke-opacity="0.05" stroke-width="1"/><line x1="500" y1="640" x2="140" y2="1000" stroke="#46D6C9" stroke-opacity="0.05" stroke-width="1"/><line x1="500" y1="640" x2="260" y2="1000" stroke="#46D6C9" stroke-opacity="0.05" stroke-width="1"/><line x1="500" y1="640" x2="380" y2="1000" stroke="#46D6C9" stroke-opacity="0.05" stroke-width="1"/><line x1="500" y1="640" x2="500" y2="1000" stroke="#46D6C9" stroke-opacity="0.05" stroke-width="1"/><line x1="500" y1="640" x2="620" y2="1000" stroke="#46D6C9" stroke-opacity="0.05" stroke-width="1"/><line x1="500" y1="640" x2="740" y2="1000" stroke="#46D6C9" stroke-opacity="0.05" stroke-width="1"/><line x1="500" y1="640" x2="860" y2="1000" stroke="#46D6C9" stroke-opacity="0.05" stroke-width="1"/><line x1="500" y1="640" x2="980" y2="1000" stroke="#46D6C9" stroke-opacity="0.05" stroke-width="1"/><line x1="500" y1="640" x2="1100" y2="1000" stroke="#46D6C9" stroke-opacity="0.05" stroke-width="1"/><line x1="500" y1="640" x2="1220" y2="1000" stroke="#46D6C9" stroke-opacity="0.05" stroke-width="1"/><line x1="0" y1="720" x2="1000" y2="720" stroke="#46D6C9" stroke-opacity="0.06" stroke-width="1"/><line x1="0" y1="800" x2="1000" y2="800" stroke="#46D6C9" stroke-opacity="0.05" stroke-width="1"/><line x1="0" y1="890" x2="1000" y2="890" stroke="#46D6C9" stroke-opacity="0.04" stroke-width="1"/><line x1="0" y1="1000" x2="1000" y2="1000" stroke="#46D6C9" stroke-opacity="0.03" stroke-width="1"/><path d="M930.0 240.0 L800.1 165.0 L800.1 15.0 L930.0 -60.0 L1059.9 15.0 L1059.9 165.0 Z" fill="none" stroke="#E9A23B" stroke-opacity="0.10" stroke-width="2"/><path d="M80.0 1030.0 L-15.3 975.0 L-15.3 865.0 L80.0 810.0 L175.3 865.0 L175.3 975.0 Z" fill="none" stroke="#46D6C9" stroke-opacity="0.10" stroke-width="2"/><circle cx="230" cy="230" r="360" fill="url(#glowGold)"/><circle cx="790" cy="790" r="340" fill="url(#glowTeal)"/><circle cx="412" cy="540" r="1" fill="#FFFFFF" opacity="0.08"/><circle cx="298" cy="236" r="2.5" fill="#FFFFFF" opacity="0.05"/><circle cx="763" cy="681" r="1.5" fill="#46D6C9" opacity="0.17"/><circle cx="587" cy="755" r="1.5" fill="#F4BE68" opacity="0.11"/><circle cx="828" cy="613" r="1" fill="#FFFFFF" opacity="0.14"/><circle cx="279" cy="323" r="1.5" fill="#46D6C9" opacity="0.06"/><circle cx="112" cy="477" r="1" fill="#F4BE68" opacity="0.08"/><circle cx="737" cy="765" r="1" fill="#46D6C9" opacity="0.16"/><circle cx="701" cy="729" r="1.5" fill="#46D6C9" opacity="0.11"/><circle cx="625" cy="586" r="2.5" fill="#46D6C9" opacity="0.08"/><circle cx="457" cy="782" r="1.5" fill="#FFFFFF" opacity="0.15"/><circle cx="287" cy="29" r="1" fill="#F4BE68" opacity="0.15"/><circle cx="975" cy="362" r="1" fill="#F4BE68" opacity="0.12"/><circle cx="347" cy="825" r="2.5" fill="#46D6C9" opacity="0.17"/><circle cx="750" cy="669" r="2" fill="#FFFFFF" opacity="0.07"/><circle cx="915" cy="726" r="1" fill="#F4BE68" opacity="0.16"/><circle cx="904" cy="81" r="1" fill="#F4BE68" opacity="0.05"/><circle cx="191" cy="523" r="1" fill="#FFFFFF" opacity="0.20"/><circle cx="288" cy="942" r="1.5" fill="#F4BE68" opacity="0.22"/><circle cx="544" cy="488" r="1.5" fill="#46D6C9" opacity="0.13"/><circle cx="407" cy="545" r="2" fill="#F4BE68" opacity="0.06"/><circle cx="146" cy="147" r="1" fill="#46D6C9" opacity="0.06"/><circle cx="400" cy="351" r="2" fill="#FFFFFF" opacity="0.06"/><circle cx="287" cy="532" r="1.5" fill="#FFFFFF" opacity="0.09"/><circle cx="558" cy="90" r="1.5" fill="#FFFFFF" opacity="0.20"/><circle cx="970" cy="455" r="1" fill="#F4BE68" opacity="0.09"/><circle cx="526" cy="326" r="1.5" fill="#FFFFFF" opacity="0.21"/><circle cx="893" cy="96" r="2" fill="#46D6C9" opacity="0.21"/><circle cx="387" cy="944" r="2.5" fill="#FFFFFF" opacity="0.13"/><circle cx="170" cy="162" r="1" fill="#FFFFFF" opacity="0.11"/><circle cx="534" cy="223" r="1" fill="#FFFFFF" opacity="0.08"/><circle cx="94" cy="111" r="2.5" fill="#F4BE68" opacity="0.14"/><circle cx="407" cy="290" r="1" fill="#FFFFFF" opacity="0.17"/><circle cx="329" cy="590" r="1.5" fill="#F4BE68" opacity="0.22"/><circle cx="36" cy="784" r="1" fill="#FFFFFF" opacity="0.08"/><circle cx="92" cy="560" r="1" fill="#F4BE68" opacity="0.20"/><circle cx="872" cy="813" r="1" fill="#FFFFFF" opacity="0.15"/><circle cx="308" cy="762" r="1" fill="#FFFFFF" opacity="0.16"/><circle cx="481" cy="293" r="2" fill="#F4BE68" opacity="0.13"/><circle cx="681" cy="863" r="2" fill="#46D6C9" opacity="0.22"/><circle cx="459" cy="790" r="1.5" fill="#F4BE68" opacity="0.15"/><circle cx="823" cy="481" r="1" fill="#F4BE68" opacity="0.11"/><circle cx="236" cy="432" r="1" fill="#46D6C9" opacity="0.22"/><circle cx="113" cy="241" r="2.5" fill="#FFFFFF" opacity="0.10"/><circle cx="763" cy="222" r="1.5" fill="#F4BE68" opacity="0.16"/><circle cx="446" cy="929" r="2.5" fill="#F4BE68" opacity="0.15"/><rect x="173" y="260" width="560" height="430" rx="20" fill="#05090F" opacity="0.33"/><rect x="170" y="250" width="560" height="430" rx="20" fill="url(#glass)" stroke="#36567400" stroke-opacity="0" /><rect x="170" y="250" width="560" height="430" rx="20" fill="none" stroke="#3A5C7A" stroke-width="1.3" opacity="0.9"/><rect x="171.3" y="251.3" width="557.4" height="215" rx="20" fill="url(#sheen)"/><circle cx="186" cy="265" r="5" fill="#ED6A5E"/><circle cx="204" cy="265" r="5" fill="#F4BE4F"/><circle cx="222" cy="265" r="5" fill="#61C554"/><rect x="638" y="258" width="64" height="14" rx="7" fill="#F4BE68" opacity="0.20"/><rect x="708" y="258" width="14" height="14" rx="4" fill="#2E4A64"/><line x1="170" y1="281" x2="730" y2="281" stroke="#274460" stroke-width="1.2"/><line x1="200" y1="490" x2="500" y2="490" stroke="#274460" stroke-width="1.4"/><rect x="208" y="427" width="21" height="63" rx="3" fill="#F4BE68" opacity="0.92"/><rect x="246" y="400" width="21" height="90" rx="3" fill="#46D6C9" opacity="0.92"/><rect x="283" y="414" width="21" height="76" rx="3" fill="#46D6C9" opacity="0.92"/><rect x="321" y="378" width="21" height="112" rx="3" fill="#F4BE68" opacity="0.92"/><rect x="358" y="400" width="21" height="90" rx="3" fill="#46D6C9" opacity="0.92"/><rect x="396" y="364" width="21" height="126" rx="3" fill="#46D6C9" opacity="0.92"/><rect x="433" y="382" width="21" height="108" rx="3" fill="#F4BE68" opacity="0.92"/><rect x="471" y="342" width="21" height="148" rx="3" fill="#46D6C9" opacity="0.92"/><line x1="200" y1="355" x2="500" y2="355" stroke="#FFFFFF" stroke-opacity="0.05" stroke-width="1"/><line x1="200" y1="400" x2="500" y2="400" stroke="#FFFFFF" stroke-opacity="0.05" stroke-width="1"/><line x1="200" y1="445" x2="500" y2="445" stroke="#FFFFFF" stroke-opacity="0.05" stroke-width="1"/><path d="M200 490 L200 418 L243 391 L286 400 L329 368 L371 382 L414 346 L457 360 L500 324 L500 490 Z" fill="url(#goldArea)"/><polyline points="200,418 243,391 286,400 329,368 371,382 414,346 457,360 500,324" fill="none" stroke="#F4BE68" stroke-width="3" stroke-linecap="round" stroke-linejoin="round"/><circle cx="200" cy="418" r="3.6" fill="#0E2236" stroke="#F4BE68" stroke-width="2"/><circle cx="286" cy="400" r="3.6" fill="#0E2236" stroke="#F4BE68" stroke-width="2"/><circle cx="371" cy="382" r="3.6" fill="#0E2236" stroke="#F4BE68" stroke-width="2"/><circle cx="457" cy="360" r="3.6" fill="#0E2236" stroke="#F4BE68" stroke-width="2"/><circle cx="620" cy="370" r="48" fill="none" stroke="#26425B" stroke-width="8"/><path d="M620 322 A48 48 0 1 1 572.9 361.0" fill="none" stroke="#F4BE68" stroke-width="8" stroke-linecap="round"/><circle cx="620" cy="370" r="20" fill="none" stroke="#2E4A64" stroke-width="1"/><circle cx="620" cy="500" r="40" fill="none" stroke="#26425B" stroke-width="8"/><path d="M620 460 A40 40 0 1 1 596.5 532.4" fill="none" stroke="#46D6C9" stroke-width="8" stroke-linecap="round"/><circle cx="620" cy="500" r="17" fill="none" stroke="#2E4A64" stroke-width="1"/><rect x="565" y="562" width="120" height="7" rx="3" fill="#3A5670"/><rect x="565" y="576" width="90" height="7" rx="3" fill="#3A5670"/><rect x="203.0" y="560" width="113.0" height="84" rx="12" fill="#05090F" opacity="0.33"/><rect x="200.0" y="550" width="113.0" height="84" rx="12" fill="url(#glass2)" stroke="#36567400" stroke-opacity="0" /><rect x="200.0" y="550" width="113.0" height="84" rx="12" fill="none" stroke="#3A5C7A" stroke-width="1.3" opacity="0.9"/><rect x="201.3" y="551.3" width="110.4" height="42" rx="12" fill="url(#sheen)"/><circle cx="216.0" cy="568" r="5" fill="#F4BE68"/><rect x="228.0" y="563" width="38" height="9" rx="4" fill="#F4BE68"/><rect x="216.0" y="614" width="73.0" height="6" rx="3" fill="#3A5670"/><polyline points="216,604 232,597 248,590 265,601 281,594 297,587" fill="none" stroke="#F4BE68" stroke-width="2" opacity="0.7"/><rect x="328.0" y="560" width="113.0" height="84" rx="12" fill="#05090F" opacity="0.33"/><rect x="325.0" y="550" width="113.0" height="84" rx="12" fill="url(#glass2)" stroke="#36567400" stroke-opacity="0" /><rect x="325.0" y="550" width="113.0" height="84" rx="12" fill="none" stroke="#3A5C7A" stroke-width="1.3" opacity="0.9"/><rect x="326.3" y="551.3" width="110.4" height="42" rx="12" fill="url(#sheen)"/><circle cx="341.0" cy="568" r="5" fill="#46D6C9"/><rect x="353.0" y="563" width="38" height="9" rx="4" fill="#F4BE68"/><rect x="341.0" y="614" width="73.0" height="6" rx="3" fill="#3A5670"/><polyline points="341,604 357,597 373,590 390,601 406,594 422,587" fill="none" stroke="#46D6C9" stroke-width="2" opacity="0.7"/><rect x="453.0" y="560" width="113.0" height="84" rx="12" fill="#05090F" opacity="0.33"/><rect x="450.0" y="550" width="113.0" height="84" rx="12" fill="url(#glass2)" stroke="#36567400" stroke-opacity="0" /><rect x="450.0" y="550" width="113.0" height="84" rx="12" fill="none" stroke="#3A5C7A" stroke-width="1.3" opacity="0.9"/><rect x="451.3" y="551.3" width="110.4" height="42" rx="12" fill="url(#sheen)"/><circle cx="466.0" cy="568" r="5" fill="#5AB6E8"/><rect x="478.0" y="563" width="38" height="9" rx="4" fill="#F4BE68"/><rect x="466.0" y="614" width="73.0" height="6" rx="3" fill="#3A5670"/><polyline points="466,604 482,597 498,590 515,601 531,594 547,587" fill="none" stroke="#5AB6E8" stroke-width="2" opacity="0.7"/><rect x="578.0" y="560" width="113.0" height="84" rx="12" fill="#05090F" opacity="0.33"/><rect x="575.0" y="550" width="113.0" height="84" rx="12" fill="url(#glass2)" stroke="#36567400" stroke-opacity="0" /><rect x="575.0" y="550" width="113.0" height="84" rx="12" fill="none" stroke="#3A5C7A" stroke-width="1.3" opacity="0.9"/><rect x="576.3" y="551.3" width="110.4" height="42" rx="12" fill="url(#sheen)"/><circle cx="591.0" cy="568" r="5" fill="#F4BE68"/><rect x="603.0" y="563" width="38" height="9" rx="4" fill="#F4BE68"/><rect x="591.0" y="614" width="73.0" height="6" rx="3" fill="#3A5670"/><polyline points="591,604 607,597 623,590 640,601 656,594 672,587" fill="none" stroke="#F4BE68" stroke-width="2" opacity="0.7"/><line x1="640" y1="470" x2="800" y2="560" stroke="#46D6C9" stroke-width="1.4" opacity="0.5" stroke-dasharray="1 6" stroke-linecap="round"/><rect x="723" y="530" width="180" height="170" rx="16" fill="#05090F" opacity="0.33"/><rect x="720" y="520" width="180" height="170" rx="16" fill="url(#glass2)" stroke="#36567400" stroke-opacity="0" /><rect x="720" y="520" width="180" height="170" rx="16" fill="none" stroke="#3A5C7A" stroke-width="1.3" opacity="0.9"/><rect x="721.3" y="521.3" width="177.4" height="85" rx="16" fill="url(#sheen)"/><circle cx="736" cy="535" r="5" fill="#ED6A5E"/><circle cx="754" cy="535" r="5" fill="#F4BE4F"/><circle cx="772" cy="535" r="5" fill="#61C554"/><rect x="808" y="528" width="64" height="14" rx="7" fill="#F4BE68" opacity="0.20"/><rect x="878" y="528" width="14" height="14" rx="4" fill="#2E4A64"/><line x1="720" y1="551" x2="900" y2="551" stroke="#274460" stroke-width="1.2"/><circle cx="810.0" cy="622" r="44" fill="none" stroke="#26425B" stroke-width="8"/><path d="M810.0 578 A44 44 0 1 1 772.8 645.6" fill="none" stroke="#F4BE68" stroke-width="8" stroke-linecap="round"/><circle cx="810.0" cy="622" r="18" fill="none" stroke="#2E4A64" stroke-width="1"/><rect x="792.0" y="616" width="36" height="10" rx="5" fill="#F4BE68"/><rect x="56" y="58" width="34" height="5" rx="2.5" fill="url(#gold)"/><text x="57" y="103" font-family="'Segoe UI',Roboto,'Helvetica Neue',Arial,sans-serif" font-size="32" font-weight="700" letter-spacing="1.5" fill="#0A1521" opacity="0.55">DATABASE MANAGEMENT</text><text x="56" y="101" font-family="'Segoe UI',Roboto,'Helvetica Neue',Arial,sans-serif" font-size="32" font-weight="700" letter-spacing="1.5" fill="#FFFFFF">DATABASE MANAGEMENT</text></svg>