<svg viewBox="0 0 1000 1000" xmlns="http://www.w3.org/2000/svg"><defs>
<linearGradient id="bg" x1="0" y1="0" x2="1" y2="1"><stop offset="0" stop-color="#16314A"/><stop offset="1" stop-color="#0A1521"/></linearGradient>
<radialGradient id="glow" cx="0.5" cy="0.5" r="0.5"><stop offset="0" stop-color="#E9A23B" stop-opacity="0.20"/><stop offset="1" stop-color="#E9A23B" stop-opacity="0"/></radialGradient>
<linearGradient id="gold" x1="0" y1="0" x2="0" y2="1"><stop offset="0" stop-color="#F4BE68"/><stop offset="1" stop-color="#C9852A"/></linearGradient>
<linearGradient id="bar" x1="0" y1="1" x2="0" y2="0"><stop offset="0" stop-color="#B9772094" stop-opacity="0.55"/><stop offset="1" stop-color="#F4BE68"/></linearGradient>
<linearGradient id="panel" x1="0" y1="0" x2="0" y2="1"><stop offset="0" stop-color="#143049"/><stop offset="1" stop-color="#0C1D2E"/></linearGradient>
<pattern id="dots" width="36" height="36" patternUnits="userSpaceOnUse"><circle cx="2" cy="2" r="1.5" fill="#FFFFFF" opacity="0.045"/></pattern>
</defs><rect width="1000" height="1000" fill="url(#bg)"/><rect width="1000" height="1000" fill="url(#dots)"/><path d="M950.0 240.0 L811.4 160.0 L811.4 -0.0 L950.0 -80.0 L1088.6 -0.0 L1088.6 160.0 Z" fill="none" stroke="#E9A23B" stroke-opacity="0.10" stroke-width="2"/><path d="M60.0 1060.0 L-43.9 1000.0 L-43.9 880.0 L60.0 820.0 L163.9 880.0 L163.9 1000.0 Z" fill="none" stroke="#E9A23B" stroke-opacity="0.07" stroke-width="2"/><circle cx="520" cy="500" r="350" fill="url(#glow)"/><line x1="170" y1="350" x2="300" y2="390" stroke="#36546F" stroke-width="1.1" opacity="0.55"/><line x1="150" y1="480" x2="275" y2="650" stroke="#36546F" stroke-width="1.1" opacity="0.55"/><line x1="230" y1="570" x2="195" y2="705" stroke="#36546F" stroke-width="1.1" opacity="0.55"/><line x1="300" y1="390" x2="355" y2="500" stroke="#36546F" stroke-width="1.1" opacity="0.55"/><line x1="275" y1="650" x2="140" y2="610" stroke="#36546F" stroke-width="1.1" opacity="0.55"/><line x1="195" y1="705" x2="170" y2="350" stroke="#36546F" stroke-width="1.1" opacity="0.55"/><line x1="355" y1="500" x2="150" y2="480" stroke="#36546F" stroke-width="1.1" opacity="0.55"/><line x1="140" y1="610" x2="230" y2="570" stroke="#36546F" stroke-width="1.1" opacity="0.55"/><line x1="170" y1="350" x2="438" y2="500" stroke="#5C7A95" stroke-width="1" opacity="0.45"/><line x1="150" y1="480" x2="438" y2="500" stroke="#5C7A95" stroke-width="1" opacity="0.45"/><line x1="230" y1="570" x2="438" y2="500" stroke="#5C7A95" stroke-width="1" opacity="0.45"/><line x1="300" y1="390" x2="438" y2="500" stroke="#5C7A95" stroke-width="1" opacity="0.45"/><line x1="275" y1="650" x2="438" y2="500" stroke="#5C7A95" stroke-width="1" opacity="0.45"/><line x1="195" y1="705" x2="438" y2="500" stroke="#5C7A95" stroke-width="1" opacity="0.45"/><line x1="355" y1="500" x2="438" y2="500" stroke="#5C7A95" stroke-width="1" opacity="0.45"/><line x1="140" y1="610" x2="438" y2="500" stroke="#5C7A95" stroke-width="1" opacity="0.45"/><circle cx="170" cy="350" r="8" fill="#1C344B" stroke="#4E6E89" stroke-width="1.5"/><circle cx="170" cy="350" r="3" fill="#7E9BB4"/><circle cx="150" cy="480" r="8" fill="#1C344B" stroke="#4E6E89" stroke-width="1.5"/><circle cx="150" cy="480" r="3" fill="#7E9BB4"/><circle cx="230" cy="570" r="8" fill="#1C344B" stroke="#4E6E89" stroke-width="1.5"/><circle cx="230" cy="570" r="3" fill="#7E9BB4"/><circle cx="300" cy="390" r="8" fill="#1C344B" stroke="#4E6E89" stroke-width="1.5"/><circle cx="300" cy="390" r="3" fill="#7E9BB4"/><circle cx="275" cy="650" r="8" fill="#1C344B" stroke="#4E6E89" stroke-width="1.5"/><circle cx="275" cy="650" r="3" fill="#7E9BB4"/><circle cx="195" cy="705" r="8" fill="#1C344B" stroke="#4E6E89" stroke-width="1.5"/><circle cx="195" cy="705" r="3" fill="#7E9BB4"/><circle cx="355" cy="500" r="8" fill="#1C344B" stroke="#4E6E89" stroke-width="1.5"/><circle cx="355" cy="500" r="3" fill="#7E9BB4"/><circle cx="140" cy="610" r="8" fill="#1C344B" stroke="#4E6E89" stroke-width="1.5"/><circle cx="140" cy="610" r="3" fill="#7E9BB4"/><path d="M515.0 596.0 L431.9 548.0 L431.9 452.0 L515.0 404.0 L598.1 452.0 L598.1 548.0 Z" fill="#0E2236" stroke="url(#gold)" stroke-width="4.8"/><path d="M480.4 532.6 L515.0 467.4 L549.6 532.6" fill="none" stroke="#F4BE68" stroke-width="6.7" stroke-linecap="round" stroke-linejoin="round"/><line x1="495.8" y1="501.9" x2="534.2" y2="501.9" stroke="#F4BE68" stroke-width="6.7" stroke-linecap="round"/><circle cx="515.0" cy="467.4" r="7.7" fill="#F4BE68"/><circle cx="480.4" cy="532.6" r="7.7" fill="#F4BE68"/><circle cx="549.6" cy="532.6" r="7.7" fill="#F4BE68"/><line x1="634" y1="672" x2="918" y2="672" stroke="#2E4860" stroke-width="2"/><rect x="648" y="594" width="40" height="78" rx="5" fill="url(#bar)"/><rect x="702" y="552" width="40" height="120" rx="5" fill="url(#bar)"/><rect x="756" y="504" width="40" height="168" rx="5" fill="url(#bar)"/><rect x="810" y="460" width="40" height="212" rx="5" fill="url(#bar)"/><rect x="864" y="410" width="40" height="262" rx="5" fill="url(#bar)"/><line x1="592" y1="500" x2="668" y2="588" stroke="#C9852A" stroke-width="1.4" opacity="0.7"/><polyline points="668,584 722,542 776,494 830,450 884,400" fill="none" stroke="#F4BE68" stroke-width="2.4" stroke-linecap="round" stroke-linejoin="round"/><circle cx="668" cy="584" r="4.5" fill="#0E2236" stroke="#F4BE68" stroke-width="2"/><circle cx="722" cy="542" r="4.5" fill="#0E2236" stroke="#F4BE68" stroke-width="2"/><circle cx="776" cy="494" r="4.5" fill="#0E2236" stroke="#F4BE68" stroke-width="2"/><circle cx="830" cy="450" r="4.5" fill="#0E2236" stroke="#F4BE68" stroke-width="2"/><circle cx="884" cy="400" r="4.5" fill="#0E2236" stroke="#F4BE68" stroke-width="2"/></svg>