<svg viewBox="0 0 1000 1000" xmlns="http://www.w3.org/2000/svg"><defs>
<linearGradient id="bg" x1="0" y1="0" x2="1" y2="1"><stop offset="0" stop-color="#16314A"/><stop offset="1" stop-color="#0A1521"/></linearGradient>
<radialGradient id="glow" cx="0.5" cy="0.5" r="0.5"><stop offset="0" stop-color="#E9A23B" stop-opacity="0.20"/><stop offset="1" stop-color="#E9A23B" stop-opacity="0"/></radialGradient>
<linearGradient id="gold" x1="0" y1="0" x2="0" y2="1"><stop offset="0" stop-color="#F4BE68"/><stop offset="1" stop-color="#C9852A"/></linearGradient>
<linearGradient id="bar" x1="0" y1="1" x2="0" y2="0"><stop offset="0" stop-color="#B9772094" stop-opacity="0.55"/><stop offset="1" stop-color="#F4BE68"/></linearGradient>
<linearGradient id="panel" x1="0" y1="0" x2="0" y2="1"><stop offset="0" stop-color="#143049"/><stop offset="1" stop-color="#0C1D2E"/></linearGradient>
<pattern id="dots" width="36" height="36" patternUnits="userSpaceOnUse"><circle cx="2" cy="2" r="1.5" fill="#FFFFFF" opacity="0.045"/></pattern>
</defs><rect width="1000" height="1000" fill="url(#bg)"/><rect width="1000" height="1000" fill="url(#dots)"/><path d="M950.0 240.0 L811.4 160.0 L811.4 -0.0 L950.0 -80.0 L1088.6 -0.0 L1088.6 160.0 Z" fill="none" stroke="#E9A23B" stroke-opacity="0.10" stroke-width="2"/><path d="M60.0 1060.0 L-43.9 1000.0 L-43.9 880.0 L60.0 820.0 L163.9 880.0 L163.9 1000.0 Z" fill="none" stroke="#E9A23B" stroke-opacity="0.07" stroke-width="2"/><circle cx="500" cy="500" r="350" fill="url(#glow)"/><rect x="355" y="335" width="300" height="300" rx="26" fill="url(#panel)" stroke="#2E4A64" stroke-width="2"/><rect x="389.0" y="369.0" width="21.5" height="21.5" rx="2" fill="#F4BE68"/><rect x="410.1" y="369.0" width="21.5" height="21.5" rx="2" fill="#F4BE68"/><rect x="431.2" y="369.0" width="21.5" height="21.5" rx="2" fill="#F4BE68"/><rect x="473.4" y="369.0" width="21.5" height="21.5" rx="2" fill="#F4BE68"/><rect x="494.5" y="369.0" width="21.5" height="21.5" rx="2" fill="#F4BE68"/><rect x="557.7" y="369.0" width="21.5" height="21.5" rx="2" fill="#F4BE68"/><rect x="578.8" y="369.0" width="21.5" height="21.5" rx="2" fill="#F4BE68"/><rect x="599.9" y="369.0" width="21.5" height="21.5" rx="2" fill="#F4BE68"/><rect x="389.0" y="390.1" width="21.5" height="21.5" rx="2" fill="#F4BE68"/><rect x="431.2" y="390.1" width="21.5" height="21.5" rx="2" fill="#F4BE68"/><rect x="473.4" y="390.1" width="21.5" height="21.5" rx="2" fill="#F4BE68"/><rect x="515.5" y="390.1" width="21.5" height="21.5" rx="2" fill="#F4BE68"/><rect x="557.7" y="390.1" width="21.5" height="21.5" rx="2" fill="#F4BE68"/><rect x="599.9" y="390.1" width="21.5" height="21.5" rx="2" fill="#F4BE68"/><rect x="389.0" y="411.2" width="21.5" height="21.5" rx="2" fill="#F4BE68"/><rect x="410.1" y="411.2" width="21.5" height="21.5" rx="2" fill="#F4BE68"/><rect x="431.2" y="411.2" width="21.5" height="21.5" rx="2" fill="#F4BE68"/><rect x="473.4" y="411.2" width="21.5" height="21.5" rx="2" fill="#F4BE68"/><rect x="515.5" y="411.2" width="21.5" height="21.5" rx="2" fill="#F4BE68"/><rect x="557.7" y="411.2" width="21.5" height="21.5" rx="2" fill="#F4BE68"/><rect x="578.8" y="411.2" width="21.5" height="21.5" rx="2" fill="#F4BE68"/><rect x="599.9" y="411.2" width="21.5" height="21.5" rx="2" fill="#F4BE68"/><rect x="473.4" y="432.3" width="21.5" height="21.5" rx="2" fill="#F4BE68"/><rect x="494.5" y="432.3" width="21.5" height="21.5" rx="2" fill="#F4BE68"/><rect x="515.5" y="432.3" width="21.5" height="21.5" rx="2" fill="#F4BE68"/><rect x="389.0" y="453.4" width="21.5" height="21.5" rx="2" fill="#F4BE68"/><rect x="431.2" y="453.4" width="21.5" height="21.5" rx="2" fill="#F4BE68"/><rect x="452.3" y="453.4" width="21.5" height="21.5" rx="2" fill="#F4BE68"/><rect x="536.6" y="453.4" width="21.5" height="21.5" rx="2" fill="#F4BE68"/><rect x="578.8" y="453.4" width="21.5" height="21.5" rx="2" fill="#F4BE68"/><rect x="389.0" y="474.5" width="21.5" height="21.5" rx="2" fill="#F4BE68"/><rect x="410.1" y="474.5" width="21.5" height="21.5" rx="2" fill="#F4BE68"/><rect x="431.2" y="474.5" width="21.5" height="21.5" rx="2" fill="#F4BE68"/><rect x="452.3" y="474.5" width="21.5" height="21.5" rx="2" fill="#F4BE68"/><rect x="494.5" y="474.5" width="21.5" height="21.5" rx="2" fill="#F4BE68"/><rect x="557.7" y="474.5" width="21.5" height="21.5" rx="2" fill="#F4BE68"/><rect x="599.9" y="474.5" width="21.5" height="21.5" rx="2" fill="#F4BE68"/><rect x="389.0" y="495.5" width="21.5" height="21.5" rx="2" fill="#F4BE68"/><rect x="410.1" y="495.5" width="21.5" height="21.5" rx="2" fill="#F4BE68"/><rect x="452.3" y="495.5" width="21.5" height="21.5" rx="2" fill="#F4BE68"/><rect x="473.4" y="495.5" width="21.5" height="21.5" rx="2" fill="#F4BE68"/><rect x="515.5" y="495.5" width="21.5" height="21.5" rx="2" fill="#F4BE68"/><rect x="536.6" y="495.5" width="21.5" height="21.5" rx="2" fill="#F4BE68"/><rect x="599.9" y="495.5" width="21.5" height="21.5" rx="2" fill="#F4BE68"/><rect x="557.7" y="516.6" width="21.5" height="21.5" rx="2" fill="#F4BE68"/><rect x="599.9" y="516.6" width="21.5" height="21.5" rx="2" fill="#F4BE68"/><rect x="389.0" y="537.7" width="21.5" height="21.5" rx="2" fill="#F4BE68"/><rect x="410.1" y="537.7" width="21.5" height="21.5" rx="2" fill="#F4BE68"/><rect x="431.2" y="537.7" width="21.5" height="21.5" rx="2" fill="#F4BE68"/><rect x="473.4" y="537.7" width="21.5" height="21.5" rx="2" fill="#F4BE68"/><rect x="515.5" y="537.7" width="21.5" height="21.5" rx="2" fill="#F4BE68"/><rect x="557.7" y="537.7" width="21.5" height="21.5" rx="2" fill="#F4BE68"/><rect x="389.0" y="558.8" width="21.5" height="21.5" rx="2" fill="#F4BE68"/><rect x="431.2" y="558.8" width="21.5" height="21.5" rx="2" fill="#F4BE68"/><rect x="515.5" y="558.8" width="21.5" height="21.5" rx="2" fill="#F4BE68"/><rect x="599.9" y="558.8" width="21.5" height="21.5" rx="2" fill="#F4BE68"/><rect x="389.0" y="579.9" width="21.5" height="21.5" rx="2" fill="#F4BE68"/><rect x="410.1" y="579.9" width="21.5" height="21.5" rx="2" fill="#F4BE68"/><rect x="431.2" y="579.9" width="21.5" height="21.5" rx="2" fill="#F4BE68"/><rect x="557.7" y="579.9" width="21.5" height="21.5" rx="2" fill="#F4BE68"/><circle cx="625" cy="365" r="11" fill="#0A1521" stroke="#C9852A" stroke-width="2"/><line x1="230" y1="250" x2="500" y2="500" stroke="#3A5670" stroke-width="1.1" opacity="0.5"/><line x1="770" y1="260" x2="500" y2="500" stroke="#3A5670" stroke-width="1.1" opacity="0.5"/><line x1="220" y1="650" x2="500" y2="500" stroke="#3A5670" stroke-width="1.1" opacity="0.5"/><line x1="780" y1="700" x2="500" y2="500" stroke="#3A5670" stroke-width="1.1" opacity="0.5"/><line x1="500" y1="180" x2="500" y2="500" stroke="#3A5670" stroke-width="1.1" opacity="0.5"/><line x1="500" y1="820" x2="500" y2="500" stroke="#3A5670" stroke-width="1.1" opacity="0.5"/><path d="M230.0 296.0 L190.2 273.0 L190.2 227.0 L230.0 204.0 L269.8 227.0 L269.8 273.0 Z" fill="#16314A" stroke="#4E6E89" stroke-width="1.6"/><circle cx="230" cy="250" r="13" fill="none" stroke="#7E9BB4" stroke-width="2"/><path d="M770.0 300.0 L735.4 280.0 L735.4 240.0 L770.0 220.0 L804.6 240.0 L804.6 280.0 Z" fill="#16314A" stroke="#4E6E89" stroke-width="1.6"/><circle cx="770" cy="260" r="11" fill="none" stroke="#7E9BB4" stroke-width="2"/><path d="M220.0 690.0 L185.4 670.0 L185.4 630.0 L220.0 610.0 L254.6 630.0 L254.6 670.0 Z" fill="#16314A" stroke="#4E6E89" stroke-width="1.6"/><circle cx="220" cy="650" r="11" fill="none" stroke="#7E9BB4" stroke-width="2"/><path d="M780.0 746.0 L740.2 723.0 L740.2 677.0 L780.0 654.0 L819.8 677.0 L819.8 723.0 Z" fill="#16314A" stroke="#4E6E89" stroke-width="1.6"/><circle cx="780" cy="700" r="13" fill="none" stroke="#7E9BB4" stroke-width="2"/><path d="M500.0 218.0 L467.1 199.0 L467.1 161.0 L500.0 142.0 L532.9 161.0 L532.9 199.0 Z" fill="#16314A" stroke="#4E6E89" stroke-width="1.6"/><circle cx="500" cy="180" r="11" fill="none" stroke="#7E9BB4" stroke-width="2"/><path d="M500.0 858.0 L467.1 839.0 L467.1 801.0 L500.0 782.0 L532.9 801.0 L532.9 839.0 Z" fill="#16314A" stroke="#4E6E89" stroke-width="1.6"/><circle cx="500" cy="820" r="11" fill="none" stroke="#7E9BB4" stroke-width="2"/><rect x="395" y="665" width="2" height="28" fill="#9FB8CC" opacity="0.8"/><rect x="401" y="665" width="2" height="28" fill="#9FB8CC" opacity="0.8"/><rect x="405" y="665" width="3" height="28" fill="#9FB8CC" opacity="0.8"/><rect x="412" y="665" width="4" height="28" fill="#9FB8CC" opacity="0.8"/><rect x="420" y="665" width="2" height="28" fill="#9FB8CC" opacity="0.8"/><rect x="424" y="665" width="2" height="28" fill="#9FB8CC" opacity="0.8"/><rect x="428" y="665" width="4" height="28" fill="#9FB8CC" opacity="0.8"/><rect x="435" y="665" width="2" height="28" fill="#9FB8CC" opacity="0.8"/><rect x="439" y="665" width="2" height="28" fill="#9FB8CC" opacity="0.8"/><rect x="445" y="665" width="4" height="28" fill="#9FB8CC" opacity="0.8"/><rect x="453" y="665" width="2" height="28" fill="#9FB8CC" opacity="0.8"/><rect x="458" y="665" width="4" height="28" fill="#9FB8CC" opacity="0.8"/><rect x="466" y="665" width="2" height="28" fill="#9FB8CC" opacity="0.8"/><rect x="470" y="665" width="5" height="28" fill="#9FB8CC" opacity="0.8"/><rect x="477" y="665" width="2" height="28" fill="#9FB8CC" opacity="0.8"/><rect x="482" y="665" width="5" height="28" fill="#9FB8CC" opacity="0.8"/><rect x="489" y="665" width="5" height="28" fill="#9FB8CC" opacity="0.8"/><rect x="496" y="665" width="2" height="28" fill="#9FB8CC" opacity="0.8"/><rect x="502" y="665" width="2" height="28" fill="#9FB8CC" opacity="0.8"/><rect x="507" y="665" width="2" height="28" fill="#9FB8CC" opacity="0.8"/><rect x="512" y="665" width="4" height="28" fill="#9FB8CC" opacity="0.8"/><rect x="520" y="665" width="5" height="28" fill="#9FB8CC" opacity="0.8"/><rect x="528" y="665" width="5" height="28" fill="#9FB8CC" opacity="0.8"/><rect x="536" y="665" width="4" height="28" fill="#9FB8CC" opacity="0.8"/><rect x="544" y="665" width="2" height="28" fill="#9FB8CC" opacity="0.8"/><rect x="549" y="665" width="2" height="28" fill="#9FB8CC" opacity="0.8"/><rect x="554" y="665" width="2" height="28" fill="#9FB8CC" opacity="0.8"/><rect x="558" y="665" width="2" height="28" fill="#9FB8CC" opacity="0.8"/><rect x="563" y="665" width="2" height="28" fill="#9FB8CC" opacity="0.8"/><rect x="568" y="665" width="5" height="28" fill="#9FB8CC" opacity="0.8"/><rect x="576" y="665" width="5" height="28" fill="#9FB8CC" opacity="0.8"/><rect x="584" y="665" width="4" height="28" fill="#9FB8CC" opacity="0.8"/><rect x="592" y="665" width="4" height="28" fill="#9FB8CC" opacity="0.8"/><rect x="600" y="665" width="3" height="28" fill="#9FB8CC" opacity="0.8"/><rect x="607" y="665" width="2" height="28" fill="#9FB8CC" opacity="0.8"/><rect x="612" y="665" width="2" height="28" fill="#9FB8CC" opacity="0.8"/><rect x="616" y="665" width="3" height="28" fill="#9FB8CC" opacity="0.8"/><rect x="623" y="665" width="2" height="28" fill="#9FB8CC" opacity="0.8"/></svg>