<svg viewBox="0 0 1000 1000" xmlns="http://www.w3.org/2000/svg"><defs>
<linearGradient id="bg" x1="0" y1="0" x2="1" y2="1"><stop offset="0" stop-color="#173450"/><stop offset="0.55" stop-color="#0E2236"/><stop offset="1" stop-color="#080F1A"/></linearGradient>
<linearGradient id="gold" x1="0" y1="0" x2="0" y2="1"><stop offset="0" stop-color="#F8CE82"/><stop offset="1" stop-color="#C9852A"/></linearGradient>
<linearGradient id="teal" x1="0" y1="0" x2="0" y2="1"><stop offset="0" stop-color="#6FE6DA"/><stop offset="1" stop-color="#2C9D93"/></linearGradient>
<linearGradient id="glass" x1="0" y1="0" x2="0" y2="1"><stop offset="0" stop-color="#21425E"/><stop offset="1" stop-color="#0D2032"/></linearGradient>
<linearGradient id="glass2" x1="0" y1="0" x2="0" y2="1"><stop offset="0" stop-color="#1A3A54"/><stop offset="1" stop-color="#0B1B2B"/></linearGradient>
<linearGradient id="sheen" x1="0" y1="0" x2="0" y2="1"><stop offset="0" stop-color="#FFFFFF" stop-opacity="0.12"/><stop offset="1" stop-color="#FFFFFF" stop-opacity="0"/></linearGradient>
<linearGradient id="goldArea" x1="0" y1="0" x2="0" y2="1"><stop offset="0" stop-color="#F4BE68" stop-opacity="0.34"/><stop offset="1" stop-color="#F4BE68" stop-opacity="0"/></linearGradient>
<linearGradient id="tealArea" x1="0" y1="0" x2="0" y2="1"><stop offset="0" stop-color="#46D6C9" stop-opacity="0.30"/><stop offset="1" stop-color="#46D6C9" stop-opacity="0"/></linearGradient>
<radialGradient id="glowGold" cx="0.5" cy="0.5" r="0.5"><stop offset="0" stop-color="#E9A23B" stop-opacity="0.30"/><stop offset="1" stop-color="#E9A23B" stop-opacity="0"/></radialGradient>
<radialGradient id="glowTeal" cx="0.5" cy="0.5" r="0.5"><stop offset="0" stop-color="#46D6C9" stop-opacity="0.22"/><stop offset="1" stop-color="#46D6C9" stop-opacity="0"/></radialGradient>
<pattern id="dots" width="32" height="32" patternUnits="userSpaceOnUse"><circle cx="1.5" cy="1.5" r="1.3" fill="#FFFFFF" opacity="0.05"/></pattern>
</defs><rect width="1000" height="1000" fill="url(#bg)"/><rect width="1000" height="1000" fill="url(#dots)"/><line x1="500" y1="640" x2="-220" y2="1000" stroke="#46D6C9" stroke-opacity="0.05" stroke-width="1"/><line x1="500" y1="640" x2="-100" y2="1000" stroke="#46D6C9" stroke-opacity="0.05" stroke-width="1"/><line x1="500" y1="640" x2="20" y2="1000" stroke="#46D6C9" stroke-opacity="0.05" stroke-width="1"/><line x1="500" y1="640" x2="140" y2="1000" stroke="#46D6C9" stroke-opacity="0.05" stroke-width="1"/><line x1="500" y1="640" x2="260" y2="1000" stroke="#46D6C9" stroke-opacity="0.05" stroke-width="1"/><line x1="500" y1="640" x2="380" y2="1000" stroke="#46D6C9" stroke-opacity="0.05" stroke-width="1"/><line x1="500" y1="640" x2="500" y2="1000" stroke="#46D6C9" stroke-opacity="0.05" stroke-width="1"/><line x1="500" y1="640" x2="620" y2="1000" stroke="#46D6C9" stroke-opacity="0.05" stroke-width="1"/><line x1="500" y1="640" x2="740" y2="1000" stroke="#46D6C9" stroke-opacity="0.05" stroke-width="1"/><line x1="500" y1="640" x2="860" y2="1000" stroke="#46D6C9" stroke-opacity="0.05" stroke-width="1"/><line x1="500" y1="640" x2="980" y2="1000" stroke="#46D6C9" stroke-opacity="0.05" stroke-width="1"/><line x1="500" y1="640" x2="1100" y2="1000" stroke="#46D6C9" stroke-opacity="0.05" stroke-width="1"/><line x1="500" y1="640" x2="1220" y2="1000" stroke="#46D6C9" stroke-opacity="0.05" stroke-width="1"/><line x1="0" y1="720" x2="1000" y2="720" stroke="#46D6C9" stroke-opacity="0.06" stroke-width="1"/><line x1="0" y1="800" x2="1000" y2="800" stroke="#46D6C9" stroke-opacity="0.05" stroke-width="1"/><line x1="0" y1="890" x2="1000" y2="890" stroke="#46D6C9" stroke-opacity="0.04" stroke-width="1"/><line x1="0" y1="1000" x2="1000" y2="1000" stroke="#46D6C9" stroke-opacity="0.03" stroke-width="1"/><path d="M930.0 240.0 L800.1 165.0 L800.1 15.0 L930.0 -60.0 L1059.9 15.0 L1059.9 165.0 Z" fill="none" stroke="#E9A23B" stroke-opacity="0.10" stroke-width="2"/><path d="M80.0 1030.0 L-15.3 975.0 L-15.3 865.0 L80.0 810.0 L175.3 865.0 L175.3 975.0 Z" fill="none" stroke="#46D6C9" stroke-opacity="0.10" stroke-width="2"/><circle cx="770" cy="250" r="360" fill="url(#glowGold)"/><circle cx="230" cy="780" r="340" fill="url(#glowTeal)"/><circle cx="940" cy="155" r="1" fill="#46D6C9" opacity="0.15"/><circle cx="197" cy="136" r="1.5" fill="#FFFFFF" opacity="0.18"/><circle cx="242" cy="941" r="1.5" fill="#FFFFFF" opacity="0.22"/><circle cx="915" cy="678" r="2" fill="#FFFFFF" opacity="0.17"/><circle cx="574" cy="40" r="1.5" fill="#FFFFFF" opacity="0.10"/><circle cx="193" cy="127" r="2.5" fill="#FFFFFF" opacity="0.21"/><circle cx="690" cy="608" r="1.5" fill="#46D6C9" opacity="0.08"/><circle cx="320" cy="770" r="2.5" fill="#F4BE68" opacity="0.07"/><circle cx="661" cy="198" r="1" fill="#FFFFFF" opacity="0.11"/><circle cx="423" cy="262" r="1.5" fill="#46D6C9" opacity="0.14"/><circle cx="401" cy="907" r="1" fill="#F4BE68" opacity="0.10"/><circle cx="401" cy="44" r="2.5" fill="#46D6C9" opacity="0.15"/><circle cx="747" cy="883" r="2" fill="#46D6C9" opacity="0.06"/><circle cx="361" cy="434" r="2" fill="#FFFFFF" opacity="0.06"/><circle cx="512" cy="405" r="1" fill="#FFFFFF" opacity="0.13"/><circle cx="185" cy="545" r="1.5" fill="#F4BE68" opacity="0.08"/><circle cx="624" cy="446" r="1" fill="#FFFFFF" opacity="0.14"/><circle cx="649" cy="117" r="1" fill="#FFFFFF" opacity="0.12"/><circle cx="904" cy="462" r="1" fill="#FFFFFF" opacity="0.13"/><circle cx="581" cy="972" r="2" fill="#FFFFFF" opacity="0.13"/><circle cx="638" cy="360" r="1" fill="#F4BE68" opacity="0.19"/><circle cx="925" cy="37" r="2.5" fill="#FFFFFF" opacity="0.11"/><circle cx="347" cy="185" r="2.5" fill="#F4BE68" opacity="0.12"/><circle cx="190" cy="93" r="1" fill="#FFFFFF" opacity="0.11"/><circle cx="973" cy="533" r="2" fill="#FFFFFF" opacity="0.20"/><circle cx="42" cy="742" r="2.5" fill="#FFFFFF" opacity="0.13"/><circle cx="407" cy="133" r="2.5" fill="#FFFFFF" opacity="0.19"/><circle cx="248" cy="827" r="2.5" fill="#FFFFFF" opacity="0.06"/><circle cx="744" cy="630" r="1" fill="#46D6C9" opacity="0.18"/><circle cx="466" cy="259" r="1" fill="#FFFFFF" opacity="0.07"/><circle cx="914" cy="563" r="1" fill="#F4BE68" opacity="0.20"/><circle cx="75" cy="499" r="2.5" fill="#46D6C9" opacity="0.10"/><circle cx="692" cy="286" r="1" fill="#46D6C9" opacity="0.09"/><circle cx="833" cy="244" r="2.5" fill="#F4BE68" opacity="0.12"/><circle cx="349" cy="849" r="1" fill="#FFFFFF" opacity="0.17"/><circle cx="188" cy="791" r="2.5" fill="#F4BE68" opacity="0.14"/><circle cx="288" cy="831" r="1.5" fill="#F4BE68" opacity="0.08"/><circle cx="524" cy="354" r="2.5" fill="#46D6C9" opacity="0.13"/><circle cx="805" cy="955" r="1" fill="#F4BE68" opacity="0.13"/><circle cx="859" cy="751" r="2" fill="#FFFFFF" opacity="0.16"/><circle cx="699" cy="102" r="2" fill="#FFFFFF" opacity="0.11"/><circle cx="517" cy="951" r="1" fill="#F4BE68" opacity="0.08"/><circle cx="850" cy="594" r="2.5" fill="#FFFFFF" opacity="0.10"/><circle cx="129" cy="506" r="1" fill="#FFFFFF" opacity="0.19"/><circle cx="115" cy="84" r="1" fill="#F4BE68" opacity="0.09"/><circle cx="921" cy="893" r="2" fill="#F4BE68" opacity="0.15"/><path d="M270 470 L560 360 L820 500 L530 640 Z" fill="#13314C" stroke="#000" stroke-width="0"/><path d="M270 470 L560 360 L820 500 L530 640 Z" fill="url(#glass)" stroke="#46627E" stroke-width="1.6"/><line x1="318" y1="452" x2="578" y2="617" stroke="#46D6C9" stroke-opacity="0.18" stroke-width="1"/><line x1="313" y1="498" x2="603" y2="383" stroke="#46D6C9" stroke-opacity="0.18" stroke-width="1"/><line x1="367" y1="433" x2="627" y2="593" stroke="#46D6C9" stroke-opacity="0.18" stroke-width="1"/><line x1="357" y1="527" x2="647" y2="407" stroke="#46D6C9" stroke-opacity="0.18" stroke-width="1"/><line x1="415" y1="415" x2="675" y2="570" stroke="#46D6C9" stroke-opacity="0.18" stroke-width="1"/><line x1="400" y1="555" x2="690" y2="430" stroke="#46D6C9" stroke-opacity="0.18" stroke-width="1"/><line x1="463" y1="397" x2="723" y2="547" stroke="#46D6C9" stroke-opacity="0.18" stroke-width="1"/><line x1="443" y1="583" x2="733" y2="453" stroke="#46D6C9" stroke-opacity="0.18" stroke-width="1"/><line x1="512" y1="378" x2="772" y2="523" stroke="#46D6C9" stroke-opacity="0.18" stroke-width="1"/><line x1="487" y1="612" x2="777" y2="477" stroke="#46D6C9" stroke-opacity="0.18" stroke-width="1"/><path d="M360 470 L470 455 L560 500 L660 500" fill="none" stroke="#F4BE68" stroke-width="3" stroke-dasharray="2 8" stroke-linecap="round"/><ellipse cx="470" cy="455" rx="30" ry="12" fill="none" stroke="#F4BE68" stroke-width="2" opacity="0.3"/><line x1="470" y1="455" x2="470" y2="411" stroke="#0A1521" stroke-width="3"/><path d="M470 391 C455 391 455 411 470 415 C485 411 485 391 470 391 Z" fill="url(#gold)"/><circle cx="470" cy="402" r="5.5" fill="#0E2236"/><ellipse cx="470" cy="455" rx="9" ry="4" fill="#000" opacity="0.3"/><line x1="560" y1="500" x2="560" y2="466" stroke="#0A1521" stroke-width="3"/><path d="M560 446 C545 446 545 466 560 470 C575 466 575 446 560 446 Z" fill="url(#gold)"/><circle cx="560" cy="457" r="5.5" fill="#0E2236"/><ellipse cx="560" cy="500" rx="9" ry="4" fill="#000" opacity="0.3"/><line x1="660" y1="500" x2="660" y2="466" stroke="#0A1521" stroke-width="3"/><path d="M660 446 C645 446 645 466 660 470 C675 466 675 446 660 446 Z" fill="url(#gold)"/><circle cx="660" cy="457" r="5.5" fill="#0E2236"/><ellipse cx="660" cy="500" rx="9" ry="4" fill="#000" opacity="0.3"/><line x1="390" y1="478" x2="390" y2="444" stroke="#0A1521" stroke-width="3"/><path d="M390 424 C375 424 375 444 390 448 C405 444 405 424 390 424 Z" fill="url(#gold)"/><circle cx="390" cy="435" r="5.5" fill="#0E2236"/><ellipse cx="390" cy="478" rx="9" ry="4" fill="#000" opacity="0.3"/><line x1="470" y1="380" x2="360" y2="250" stroke="#46D6C9" stroke-width="1.4" opacity="0.55" stroke-dasharray="1 6" stroke-linecap="round"/><rect x="253" y="190" width="210" height="140" rx="14" fill="#05090F" opacity="0.33"/><rect x="250" y="180" width="210" height="140" rx="14" fill="url(#glass2)" stroke="#36567400" stroke-opacity="0" /><rect x="250" y="180" width="210" height="140" rx="14" fill="none" stroke="#3A5C7A" stroke-width="1.3" opacity="0.9"/><rect x="251.3" y="181.3" width="207.4" height="70" rx="14" fill="url(#sheen)"/><circle cx="266" cy="195" r="5" fill="#ED6A5E"/><circle cx="284" cy="195" r="5" fill="#F4BE4F"/><circle cx="302" cy="195" r="5" fill="#61C554"/><rect x="368" y="188" width="64" height="14" rx="7" fill="#F4BE68" opacity="0.20"/><rect x="438" y="188" width="14" height="14" rx="4" fill="#2E4A64"/><line x1="250" y1="211" x2="460" y2="211" stroke="#274460" stroke-width="1.2"/><rect x="272" y="236" width="150" height="7" rx="3" fill="#3A5670"/><rect x="272" y="252" width="110" height="7" rx="3" fill="#3A5670"/><rect x="272" y="268" width="130" height="7" rx="3" fill="#3A5670"/><circle cx="430" cy="250" r="16" fill="none" stroke="#46D6C9" stroke-width="3"/><rect x="623" y="210" width="200" height="130" rx="14" fill="#05090F" opacity="0.33"/><rect x="620" y="200" width="200" height="130" rx="14" fill="url(#glass2)" stroke="#36567400" stroke-opacity="0" /><rect x="620" y="200" width="200" height="130" rx="14" fill="none" stroke="#3A5C7A" stroke-width="1.3" opacity="0.9"/><rect x="621.3" y="201.3" width="197.4" height="65" rx="14" fill="url(#sheen)"/><circle cx="636" cy="215" r="5" fill="#ED6A5E"/><circle cx="654" cy="215" r="5" fill="#F4BE4F"/><circle cx="672" cy="215" r="5" fill="#61C554"/><rect x="728" y="208" width="64" height="14" rx="7" fill="#F4BE68" opacity="0.20"/><rect x="798" y="208" width="14" height="14" rx="4" fill="#2E4A64"/><line x1="620" y1="231" x2="820" y2="231" stroke="#274460" stroke-width="1.2"/><line x1="640" y1="265" x2="800" y2="265" stroke="#FFFFFF" stroke-opacity="0.05" stroke-width="1"/><line x1="640" y1="280" x2="800" y2="280" stroke="#FFFFFF" stroke-opacity="0.05" stroke-width="1"/><line x1="640" y1="295" x2="800" y2="295" stroke="#FFFFFF" stroke-opacity="0.05" stroke-width="1"/><path d="M640 310 L640 292 L672 274 L704 283 L736 262 L768 271 L800 256 L800 310 Z" fill="url(#tealArea)"/><polyline points="640,292 672,274 704,283 736,262 768,271 800,256" fill="none" stroke="#46D6C9" stroke-width="3" stroke-linecap="round" stroke-linejoin="round"/><circle cx="640" cy="292" r="3.6" fill="#0E2236" stroke="#46D6C9" stroke-width="2"/><circle cx="704" cy="283" r="3.6" fill="#0E2236" stroke="#46D6C9" stroke-width="2"/><circle cx="768" cy="271" r="3.6" fill="#0E2236" stroke="#46D6C9" stroke-width="2"/><g opacity="0.7"><circle cx="800" cy="640" r="24" fill="none" stroke="#9FB8CC" stroke-width="1.6"/><line x1="800" y1="610" x2="800" y2="670" stroke="#9FB8CC" stroke-width="1.6"/><line x1="770" y1="640" x2="830" y2="640" stroke="#9FB8CC" stroke-width="1.6"/></g><rect x="56" y="58" width="34" height="5" rx="2.5" fill="url(#gold)"/><text x="57" y="103" font-family="'Segoe UI',Roboto,'Helvetica Neue',Arial,sans-serif" font-size="32" font-weight="700" letter-spacing="1.5" fill="#0A1521" opacity="0.55">GIS INTEGRATION</text><text x="56" y="101" font-family="'Segoe UI',Roboto,'Helvetica Neue',Arial,sans-serif" font-size="32" font-weight="700" letter-spacing="1.5" fill="#FFFFFF">GIS INTEGRATION</text></svg>