<svg viewBox="0 0 1000 1000" xmlns="http://www.w3.org/2000/svg"><defs>
<linearGradient id="bg" x1="0" y1="0" x2="1" y2="1"><stop offset="0" stop-color="#173450"/><stop offset="0.55" stop-color="#0E2236"/><stop offset="1" stop-color="#080F1A"/></linearGradient>
<linearGradient id="gold" x1="0" y1="0" x2="0" y2="1"><stop offset="0" stop-color="#F8CE82"/><stop offset="1" stop-color="#C9852A"/></linearGradient>
<linearGradient id="teal" x1="0" y1="0" x2="0" y2="1"><stop offset="0" stop-color="#6FE6DA"/><stop offset="1" stop-color="#2C9D93"/></linearGradient>
<linearGradient id="glass" x1="0" y1="0" x2="0" y2="1"><stop offset="0" stop-color="#21425E"/><stop offset="1" stop-color="#0D2032"/></linearGradient>
<linearGradient id="glass2" x1="0" y1="0" x2="0" y2="1"><stop offset="0" stop-color="#1A3A54"/><stop offset="1" stop-color="#0B1B2B"/></linearGradient>
<linearGradient id="sheen" x1="0" y1="0" x2="0" y2="1"><stop offset="0" stop-color="#FFFFFF" stop-opacity="0.12"/><stop offset="1" stop-color="#FFFFFF" stop-opacity="0"/></linearGradient>
<linearGradient id="goldArea" x1="0" y1="0" x2="0" y2="1"><stop offset="0" stop-color="#F4BE68" stop-opacity="0.34"/><stop offset="1" stop-color="#F4BE68" stop-opacity="0"/></linearGradient>
<linearGradient id="tealArea" x1="0" y1="0" x2="0" y2="1"><stop offset="0" stop-color="#46D6C9" stop-opacity="0.30"/><stop offset="1" stop-color="#46D6C9" stop-opacity="0"/></linearGradient>
<radialGradient id="glowGold" cx="0.5" cy="0.5" r="0.5"><stop offset="0" stop-color="#E9A23B" stop-opacity="0.30"/><stop offset="1" stop-color="#E9A23B" stop-opacity="0"/></radialGradient>
<radialGradient id="glowTeal" cx="0.5" cy="0.5" r="0.5"><stop offset="0" stop-color="#46D6C9" stop-opacity="0.22"/><stop offset="1" stop-color="#46D6C9" stop-opacity="0"/></radialGradient>
<pattern id="dots" width="32" height="32" patternUnits="userSpaceOnUse"><circle cx="1.5" cy="1.5" r="1.3" fill="#FFFFFF" opacity="0.05"/></pattern>
</defs><rect width="1000" height="1000" fill="url(#bg)"/><rect width="1000" height="1000" fill="url(#dots)"/><line x1="500" y1="640" x2="-220" y2="1000" stroke="#46D6C9" stroke-opacity="0.05" stroke-width="1"/><line x1="500" y1="640" x2="-100" y2="1000" stroke="#46D6C9" stroke-opacity="0.05" stroke-width="1"/><line x1="500" y1="640" x2="20" y2="1000" stroke="#46D6C9" stroke-opacity="0.05" stroke-width="1"/><line x1="500" y1="640" x2="140" y2="1000" stroke="#46D6C9" stroke-opacity="0.05" stroke-width="1"/><line x1="500" y1="640" x2="260" y2="1000" stroke="#46D6C9" stroke-opacity="0.05" stroke-width="1"/><line x1="500" y1="640" x2="380" y2="1000" stroke="#46D6C9" stroke-opacity="0.05" stroke-width="1"/><line x1="500" y1="640" x2="500" y2="1000" stroke="#46D6C9" stroke-opacity="0.05" stroke-width="1"/><line x1="500" y1="640" x2="620" y2="1000" stroke="#46D6C9" stroke-opacity="0.05" stroke-width="1"/><line x1="500" y1="640" x2="740" y2="1000" stroke="#46D6C9" stroke-opacity="0.05" stroke-width="1"/><line x1="500" y1="640" x2="860" y2="1000" stroke="#46D6C9" stroke-opacity="0.05" stroke-width="1"/><line x1="500" y1="640" x2="980" y2="1000" stroke="#46D6C9" stroke-opacity="0.05" stroke-width="1"/><line x1="500" y1="640" x2="1100" y2="1000" stroke="#46D6C9" stroke-opacity="0.05" stroke-width="1"/><line x1="500" y1="640" x2="1220" y2="1000" stroke="#46D6C9" stroke-opacity="0.05" stroke-width="1"/><line x1="0" y1="720" x2="1000" y2="720" stroke="#46D6C9" stroke-opacity="0.06" stroke-width="1"/><line x1="0" y1="800" x2="1000" y2="800" stroke="#46D6C9" stroke-opacity="0.05" stroke-width="1"/><line x1="0" y1="890" x2="1000" y2="890" stroke="#46D6C9" stroke-opacity="0.04" stroke-width="1"/><line x1="0" y1="1000" x2="1000" y2="1000" stroke="#46D6C9" stroke-opacity="0.03" stroke-width="1"/><path d="M930.0 240.0 L800.1 165.0 L800.1 15.0 L930.0 -60.0 L1059.9 15.0 L1059.9 165.0 Z" fill="none" stroke="#E9A23B" stroke-opacity="0.10" stroke-width="2"/><path d="M80.0 1030.0 L-15.3 975.0 L-15.3 865.0 L80.0 810.0 L175.3 865.0 L175.3 975.0 Z" fill="none" stroke="#46D6C9" stroke-opacity="0.10" stroke-width="2"/><circle cx="760" cy="230" r="360" fill="url(#glowGold)"/><circle cx="230" cy="790" r="340" fill="url(#glowTeal)"/><circle cx="568" cy="627" r="1.5" fill="#FFFFFF" opacity="0.13"/><circle cx="960" cy="889" r="2.5" fill="#46D6C9" opacity="0.10"/><circle cx="447" cy="926" r="1" fill="#F4BE68" opacity="0.10"/><circle cx="518" cy="883" r="2.5" fill="#46D6C9" opacity="0.20"/><circle cx="803" cy="289" r="1.5" fill="#FFFFFF" opacity="0.14"/><circle cx="133" cy="74" r="1.5" fill="#FFFFFF" opacity="0.22"/><circle cx="740" cy="138" r="1.5" fill="#F4BE68" opacity="0.18"/><circle cx="327" cy="360" r="1.5" fill="#46D6C9" opacity="0.14"/><circle cx="198" cy="126" r="1" fill="#FFFFFF" opacity="0.11"/><circle cx="81" cy="110" r="1.5" fill="#46D6C9" opacity="0.05"/><circle cx="284" cy="215" r="1" fill="#46D6C9" opacity="0.17"/><circle cx="459" cy="475" r="1.5" fill="#46D6C9" opacity="0.15"/><circle cx="774" cy="316" r="1" fill="#46D6C9" opacity="0.05"/><circle cx="384" cy="769" r="1" fill="#FFFFFF" opacity="0.16"/><circle cx="34" cy="541" r="2" fill="#FFFFFF" opacity="0.17"/><circle cx="893" cy="720" r="2" fill="#FFFFFF" opacity="0.06"/><circle cx="870" cy="913" r="1.5" fill="#46D6C9" opacity="0.13"/><circle cx="929" cy="410" r="2" fill="#46D6C9" opacity="0.20"/><circle cx="392" cy="749" r="1.5" fill="#F4BE68" opacity="0.19"/><circle cx="181" cy="940" r="1.5" fill="#F4BE68" opacity="0.16"/><circle cx="891" cy="186" r="1.5" fill="#46D6C9" opacity="0.19"/><circle cx="914" cy="341" r="1.5" fill="#FFFFFF" opacity="0.18"/><circle cx="836" cy="620" r="1" fill="#FFFFFF" opacity="0.09"/><circle cx="785" cy="834" r="1" fill="#FFFFFF" opacity="0.15"/><circle cx="848" cy="211" r="2.5" fill="#FFFFFF" opacity="0.06"/><circle cx="571" cy="976" r="1.5" fill="#FFFFFF" opacity="0.05"/><circle cx="417" cy="900" r="1" fill="#FFFFFF" opacity="0.13"/><circle cx="585" cy="221" r="2.5" fill="#FFFFFF" opacity="0.09"/><circle cx="341" cy="105" r="2" fill="#FFFFFF" opacity="0.20"/><circle cx="745" cy="822" r="1" fill="#46D6C9" opacity="0.19"/><circle cx="848" cy="614" r="1.5" fill="#F4BE68" opacity="0.14"/><circle cx="114" cy="391" r="2" fill="#FFFFFF" opacity="0.10"/><circle cx="527" cy="824" r="1.5" fill="#46D6C9" opacity="0.07"/><circle cx="528" cy="152" r="2" fill="#46D6C9" opacity="0.14"/><circle cx="331" cy="728" r="1" fill="#FFFFFF" opacity="0.05"/><circle cx="163" cy="199" r="1.5" fill="#FFFFFF" opacity="0.09"/><circle cx="496" cy="595" r="2.5" fill="#F4BE68" opacity="0.10"/><circle cx="235" cy="61" r="1" fill="#FFFFFF" opacity="0.12"/><circle cx="352" cy="132" r="1" fill="#46D6C9" opacity="0.16"/><circle cx="338" cy="798" r="1" fill="#FFFFFF" opacity="0.19"/><circle cx="515" cy="778" r="2" fill="#FFFFFF" opacity="0.15"/><circle cx="832" cy="498" r="1" fill="#46D6C9" opacity="0.20"/><circle cx="843" cy="700" r="1.5" fill="#F4BE68" opacity="0.17"/><circle cx="622" cy="245" r="2" fill="#46D6C9" opacity="0.19"/><circle cx="633" cy="946" r="1.5" fill="#FFFFFF" opacity="0.18"/><circle cx="289" cy="812" r="1" fill="#46D6C9" opacity="0.08"/><line x1="230" y1="250" x2="500" y2="500" stroke="#F4BE68" stroke-width="1.4" opacity="0.4" stroke-dasharray="1 6" stroke-linecap="round"/><line x1="790" y1="250" x2="500" y2="500" stroke="#46D6C9" stroke-width="1.4" opacity="0.4" stroke-dasharray="1 6" stroke-linecap="round"/><line x1="210" y1="640" x2="500" y2="500" stroke="#46D6C9" stroke-width="1.4" opacity="0.4" stroke-dasharray="1 6" stroke-linecap="round"/><line x1="800" y1="680" x2="500" y2="500" stroke="#F4BE68" stroke-width="1.4" opacity="0.4" stroke-dasharray="1 6" stroke-linecap="round"/><line x1="500" y1="160" x2="500" y2="500" stroke="#46D6C9" stroke-width="1.4" opacity="0.4" stroke-dasharray="1 6" stroke-linecap="round"/><path d="M230.0 296.0 L190.2 273.0 L190.2 227.0 L230.0 204.0 L269.8 227.0 L269.8 273.0 Z" fill="url(#glass2)" stroke="#46627E" stroke-width="1.4"/><circle cx="230" cy="250" r="16" fill="none" stroke="#46D6C9" stroke-width="2.4"/><path d="M790.0 292.0 L753.6 271.0 L753.6 229.0 L790.0 208.0 L826.4 229.0 L826.4 271.0 Z" fill="url(#glass2)" stroke="#46627E" stroke-width="1.4"/><rect x="779" y="239" width="22" height="22" rx="3" fill="none" stroke="#F4BE68" stroke-width="2.2"/><path d="M210.0 682.0 L173.6 661.0 L173.6 619.0 L210.0 598.0 L246.4 619.0 L246.4 661.0 Z" fill="url(#glass2)" stroke="#46627E" stroke-width="1.4"/><path d="M210 627 L223 650 L197 650 Z" fill="none" stroke="#46D6C9" stroke-width="2.2" stroke-linejoin="round"/><path d="M800.0 726.0 L760.2 703.0 L760.2 657.0 L800.0 634.0 L839.8 657.0 L839.8 703.0 Z" fill="url(#glass2)" stroke="#46627E" stroke-width="1.4"/><circle cx="800" cy="680" r="10" fill="#F4BE68"/><path d="M500.0 198.0 L467.1 179.0 L467.1 141.0 L500.0 122.0 L532.9 141.0 L532.9 179.0 Z" fill="url(#glass2)" stroke="#46627E" stroke-width="1.4"/><circle cx="500" cy="160" r="8" fill="#F4BE68"/><rect x="353" y="310" width="420" height="430" rx="20" fill="#05090F" opacity="0.33"/><rect x="350" y="300" width="420" height="430" rx="20" fill="url(#glass)" stroke="#36567400" stroke-opacity="0" /><rect x="350" y="300" width="420" height="430" rx="20" fill="none" stroke="#3A5C7A" stroke-width="1.3" opacity="0.9"/><rect x="351.3" y="301.3" width="417.4" height="215" rx="20" fill="url(#sheen)"/><circle cx="366" cy="315" r="5" fill="#ED6A5E"/><circle cx="384" cy="315" r="5" fill="#F4BE4F"/><circle cx="402" cy="315" r="5" fill="#61C554"/><rect x="678" y="308" width="64" height="14" rx="7" fill="#F4BE68" opacity="0.20"/><rect x="748" y="308" width="14" height="14" rx="4" fill="#2E4A64"/><line x1="350" y1="331" x2="770" y2="331" stroke="#274460" stroke-width="1.2"/><rect x="372" y="356" width="186" height="186" rx="14" fill="#0A1726" stroke="#2E4A64" stroke-width="1.3"/><rect x="380.0" y="364.0" width="15.9" height="15.9" rx="2" fill="#F4BE68"/><rect x="395.5" y="364.0" width="15.9" height="15.9" rx="2" fill="#F4BE68"/><rect x="410.9" y="364.0" width="15.9" height="15.9" rx="2" fill="#F4BE68"/><rect x="441.8" y="364.0" width="15.9" height="15.9" rx="2" fill="#F4BE68"/><rect x="457.3" y="364.0" width="15.9" height="15.9" rx="2" fill="#F4BE68"/><rect x="472.7" y="364.0" width="15.9" height="15.9" rx="2" fill="#F4BE68"/><rect x="503.6" y="364.0" width="15.9" height="15.9" rx="2" fill="#F4BE68"/><rect x="519.1" y="364.0" width="15.9" height="15.9" rx="2" fill="#F4BE68"/><rect x="534.5" y="364.0" width="15.9" height="15.9" rx="2" fill="#F4BE68"/><rect x="380.0" y="379.5" width="15.9" height="15.9" rx="2" fill="#F4BE68"/><rect x="410.9" y="379.5" width="15.9" height="15.9" rx="2" fill="#F4BE68"/><rect x="457.3" y="379.5" width="15.9" height="15.9" rx="2" fill="#F4BE68"/><rect x="503.6" y="379.5" width="15.9" height="15.9" rx="2" fill="#F4BE68"/><rect x="534.5" y="379.5" width="15.9" height="15.9" rx="2" fill="#F4BE68"/><rect x="380.0" y="394.9" width="15.9" height="15.9" rx="2" fill="#F4BE68"/><rect x="395.5" y="394.9" width="15.9" height="15.9" rx="2" fill="#F4BE68"/><rect x="410.9" y="394.9" width="15.9" height="15.9" rx="2" fill="#F4BE68"/><rect x="457.3" y="394.9" width="15.9" height="15.9" rx="2" fill="#F4BE68"/><rect x="503.6" y="394.9" width="15.9" height="15.9" rx="2" fill="#F4BE68"/><rect x="519.1" y="394.9" width="15.9" height="15.9" rx="2" fill="#F4BE68"/><rect x="534.5" y="394.9" width="15.9" height="15.9" rx="2" fill="#F4BE68"/><rect x="457.3" y="410.4" width="15.9" height="15.9" rx="2" fill="#F4BE68"/><rect x="472.7" y="410.4" width="15.9" height="15.9" rx="2" fill="#F4BE68"/><rect x="395.5" y="425.8" width="15.9" height="15.9" rx="2" fill="#F4BE68"/><rect x="426.4" y="425.8" width="15.9" height="15.9" rx="2" fill="#F4BE68"/><rect x="441.8" y="425.8" width="15.9" height="15.9" rx="2" fill="#F4BE68"/><rect x="457.3" y="425.8" width="15.9" height="15.9" rx="2" fill="#F4BE68"/><rect x="534.5" y="425.8" width="15.9" height="15.9" rx="2" fill="#F4BE68"/><rect x="395.5" y="441.3" width="15.9" height="15.9" rx="2" fill="#F4BE68"/><rect x="410.9" y="441.3" width="15.9" height="15.9" rx="2" fill="#F4BE68"/><rect x="457.3" y="441.3" width="15.9" height="15.9" rx="2" fill="#F4BE68"/><rect x="472.7" y="441.3" width="15.9" height="15.9" rx="2" fill="#F4BE68"/><rect x="488.2" y="441.3" width="15.9" height="15.9" rx="2" fill="#F4BE68"/><rect x="503.6" y="441.3" width="15.9" height="15.9" rx="2" fill="#F4BE68"/><rect x="519.1" y="441.3" width="15.9" height="15.9" rx="2" fill="#F4BE68"/><rect x="380.0" y="456.7" width="15.9" height="15.9" rx="2" fill="#F4BE68"/><rect x="426.4" y="456.7" width="15.9" height="15.9" rx="2" fill="#F4BE68"/><rect x="441.8" y="456.7" width="15.9" height="15.9" rx="2" fill="#F4BE68"/><rect x="457.3" y="456.7" width="15.9" height="15.9" rx="2" fill="#F4BE68"/><rect x="472.7" y="456.7" width="15.9" height="15.9" rx="2" fill="#F4BE68"/><rect x="488.2" y="456.7" width="15.9" height="15.9" rx="2" fill="#F4BE68"/><rect x="519.1" y="456.7" width="15.9" height="15.9" rx="2" fill="#F4BE68"/><rect x="441.8" y="472.2" width="15.9" height="15.9" rx="2" fill="#F4BE68"/><rect x="488.2" y="472.2" width="15.9" height="15.9" rx="2" fill="#F4BE68"/><rect x="503.6" y="472.2" width="15.9" height="15.9" rx="2" fill="#F4BE68"/><rect x="519.1" y="472.2" width="15.9" height="15.9" rx="2" fill="#F4BE68"/><rect x="380.0" y="487.6" width="15.9" height="15.9" rx="2" fill="#F4BE68"/><rect x="395.5" y="487.6" width="15.9" height="15.9" rx="2" fill="#F4BE68"/><rect x="410.9" y="487.6" width="15.9" height="15.9" rx="2" fill="#F4BE68"/><rect x="441.8" y="487.6" width="15.9" height="15.9" rx="2" fill="#F4BE68"/><rect x="457.3" y="487.6" width="15.9" height="15.9" rx="2" fill="#F4BE68"/><rect x="472.7" y="487.6" width="15.9" height="15.9" rx="2" fill="#F4BE68"/><rect x="503.6" y="487.6" width="15.9" height="15.9" rx="2" fill="#F4BE68"/><rect x="519.1" y="487.6" width="15.9" height="15.9" rx="2" fill="#F4BE68"/><rect x="380.0" y="503.1" width="15.9" height="15.9" rx="2" fill="#F4BE68"/><rect x="410.9" y="503.1" width="15.9" height="15.9" rx="2" fill="#F4BE68"/><rect x="441.8" y="503.1" width="15.9" height="15.9" rx="2" fill="#F4BE68"/><rect x="472.7" y="503.1" width="15.9" height="15.9" rx="2" fill="#F4BE68"/><rect x="519.1" y="503.1" width="15.9" height="15.9" rx="2" fill="#F4BE68"/><rect x="380.0" y="518.5" width="15.9" height="15.9" rx="2" fill="#F4BE68"/><rect x="395.5" y="518.5" width="15.9" height="15.9" rx="2" fill="#F4BE68"/><rect x="410.9" y="518.5" width="15.9" height="15.9" rx="2" fill="#F4BE68"/><rect x="457.3" y="518.5" width="15.9" height="15.9" rx="2" fill="#F4BE68"/><rect x="472.7" y="518.5" width="15.9" height="15.9" rx="2" fill="#F4BE68"/><rect x="519.1" y="518.5" width="15.9" height="15.9" rx="2" fill="#F4BE68"/><rect x="575" y="364" width="150" height="11" rx="5" fill="#F4BE68"/><rect x="575" y="396" width="120" height="7" rx="3" fill="#3A5670"/><rect x="575" y="407" width="150" height="5" rx="2" fill="#26425B"/><rect x="575" y="426" width="112" height="7" rx="3" fill="#3A5670"/><rect x="575" y="437" width="150" height="5" rx="2" fill="#26425B"/><rect x="575" y="456" width="104" height="7" rx="3" fill="#3A5670"/><rect x="575" y="467" width="150" height="5" rx="2" fill="#26425B"/><rect x="575" y="486" width="96" height="7" rx="3" fill="#3A5670"/><rect x="575" y="497" width="150" height="5" rx="2" fill="#26425B"/><rect x="575" y="532" width="120" height="26" rx="13" fill="#46D6C9" opacity="0.22"/><circle cx="593" cy="545" r="6" fill="#46D6C9"/><rect x="607" y="541" width="70" height="8" rx="4" fill="#46D6C9" opacity="0.8"/><rect x="380" y="664" width="2" height="34" fill="#9FB8CC" opacity="0.85"/><rect x="385" y="664" width="2" height="34" fill="#9FB8CC" opacity="0.85"/><rect x="391" y="664" width="4" height="34" fill="#9FB8CC" opacity="0.85"/><rect x="398" y="664" width="2" height="34" fill="#9FB8CC" opacity="0.85"/><rect x="402" y="664" width="2" height="34" fill="#9FB8CC" opacity="0.85"/><rect x="406" y="664" width="4" height="34" fill="#9FB8CC" opacity="0.85"/><rect x="414" y="664" width="3" height="34" fill="#9FB8CC" opacity="0.85"/><rect x="419" y="664" width="2" height="34" fill="#9FB8CC" opacity="0.85"/><rect x="425" y="664" width="5" height="34" fill="#9FB8CC" opacity="0.85"/><rect x="433" y="664" width="3" height="34" fill="#9FB8CC" opacity="0.85"/><rect x="438" y="664" width="2" height="34" fill="#9FB8CC" opacity="0.85"/><rect x="443" y="664" width="2" height="34" fill="#9FB8CC" opacity="0.85"/><rect x="447" y="664" width="3" height="34" fill="#9FB8CC" opacity="0.85"/><rect x="453" y="664" width="2" height="34" fill="#9FB8CC" opacity="0.85"/><rect x="457" y="664" width="3" height="34" fill="#9FB8CC" opacity="0.85"/><rect x="463" y="664" width="3" height="34" fill="#9FB8CC" opacity="0.85"/><rect x="468" y="664" width="5" height="34" fill="#9FB8CC" opacity="0.85"/><rect x="476" y="664" width="4" height="34" fill="#9FB8CC" opacity="0.85"/><rect x="484" y="664" width="2" height="34" fill="#9FB8CC" opacity="0.85"/><rect x="488" y="664" width="2" height="34" fill="#9FB8CC" opacity="0.85"/><rect x="493" y="664" width="3" height="34" fill="#9FB8CC" opacity="0.85"/><rect x="498" y="664" width="5" height="34" fill="#9FB8CC" opacity="0.85"/><rect x="506" y="664" width="2" height="34" fill="#9FB8CC" opacity="0.85"/><rect x="511" y="664" width="5" height="34" fill="#9FB8CC" opacity="0.85"/><rect x="520" y="664" width="3" height="34" fill="#9FB8CC" opacity="0.85"/><rect x="527" y="664" width="2" height="34" fill="#9FB8CC" opacity="0.85"/><rect x="532" y="664" width="4" height="34" fill="#9FB8CC" opacity="0.85"/><rect x="540" y="664" width="3" height="34" fill="#9FB8CC" opacity="0.85"/><rect x="546" y="664" width="4" height="34" fill="#9FB8CC" opacity="0.85"/><rect x="552" y="664" width="2" height="34" fill="#9FB8CC" opacity="0.85"/><rect x="557" y="664" width="3" height="34" fill="#9FB8CC" opacity="0.85"/><rect x="562" y="664" width="2" height="34" fill="#9FB8CC" opacity="0.85"/><rect x="566" y="664" width="4" height="34" fill="#9FB8CC" opacity="0.85"/><rect x="574" y="664" width="3" height="34" fill="#9FB8CC" opacity="0.85"/><rect x="581" y="664" width="5" height="34" fill="#9FB8CC" opacity="0.85"/><rect x="590" y="664" width="4" height="34" fill="#9FB8CC" opacity="0.85"/><rect x="598" y="664" width="3" height="34" fill="#9FB8CC" opacity="0.85"/><rect x="603" y="664" width="2" height="34" fill="#9FB8CC" opacity="0.85"/><rect x="607" y="664" width="4" height="34" fill="#9FB8CC" opacity="0.85"/><rect x="613" y="664" width="4" height="34" fill="#9FB8CC" opacity="0.85"/><rect x="620" y="664" width="2" height="34" fill="#9FB8CC" opacity="0.85"/><rect x="625" y="664" width="4" height="34" fill="#9FB8CC" opacity="0.85"/><rect x="633" y="664" width="5" height="34" fill="#9FB8CC" opacity="0.85"/><rect x="641" y="664" width="5" height="34" fill="#9FB8CC" opacity="0.85"/><rect x="648" y="664" width="3" height="34" fill="#9FB8CC" opacity="0.85"/><rect x="653" y="664" width="2" height="34" fill="#9FB8CC" opacity="0.85"/><rect x="659" y="664" width="2" height="34" fill="#9FB8CC" opacity="0.85"/><rect x="664" y="664" width="5" height="34" fill="#9FB8CC" opacity="0.85"/><rect x="673" y="664" width="2" height="34" fill="#9FB8CC" opacity="0.85"/><rect x="677" y="664" width="3" height="34" fill="#9FB8CC" opacity="0.85"/><rect x="682" y="664" width="3" height="34" fill="#9FB8CC" opacity="0.85"/><rect x="688" y="664" width="2" height="34" fill="#9FB8CC" opacity="0.85"/><rect x="692" y="664" width="3" height="34" fill="#9FB8CC" opacity="0.85"/><rect x="699" y="664" width="2" height="34" fill="#9FB8CC" opacity="0.85"/><rect x="704" y="664" width="3" height="34" fill="#9FB8CC" opacity="0.85"/><rect x="709" y="664" width="3" height="34" fill="#9FB8CC" opacity="0.85"/><rect x="715" y="664" width="3" height="34" fill="#9FB8CC" opacity="0.85"/><rect x="720" y="664" width="4" height="34" fill="#9FB8CC" opacity="0.85"/><rect x="728" y="664" width="2" height="34" fill="#9FB8CC" opacity="0.85"/><rect x="733" y="664" width="5" height="34" fill="#9FB8CC" opacity="0.85"/><rect x="372" y="450" width="376" height="3" rx="1.5" fill="#46D6C9" opacity="0.8"/><rect x="56" y="58" width="34" height="5" rx="2.5" fill="url(#gold)"/><text x="57" y="103" font-family="'Segoe UI',Roboto,'Helvetica Neue',Arial,sans-serif" font-size="32" font-weight="700" letter-spacing="1.5" fill="#0A1521" opacity="0.55">QR CODE GENERATION</text><text x="56" y="101" font-family="'Segoe UI',Roboto,'Helvetica Neue',Arial,sans-serif" font-size="32" font-weight="700" letter-spacing="1.5" fill="#FFFFFF">QR CODE GENERATION</text></svg>