<svg viewBox="0 0 1000 1000" xmlns="http://www.w3.org/2000/svg"><defs>
<linearGradient id="bg" x1="0" y1="0" x2="1" y2="1"><stop offset="0" stop-color="#16314A"/><stop offset="1" stop-color="#0A1521"/></linearGradient>
<radialGradient id="glow" cx="0.5" cy="0.5" r="0.5"><stop offset="0" stop-color="#E9A23B" stop-opacity="0.20"/><stop offset="1" stop-color="#E9A23B" stop-opacity="0"/></radialGradient>
<linearGradient id="gold" x1="0" y1="0" x2="0" y2="1"><stop offset="0" stop-color="#F4BE68"/><stop offset="1" stop-color="#C9852A"/></linearGradient>
<linearGradient id="bar" x1="0" y1="1" x2="0" y2="0"><stop offset="0" stop-color="#B9772094" stop-opacity="0.55"/><stop offset="1" stop-color="#F4BE68"/></linearGradient>
<linearGradient id="panel" x1="0" y1="0" x2="0" y2="1"><stop offset="0" stop-color="#143049"/><stop offset="1" stop-color="#0C1D2E"/></linearGradient>
<pattern id="dots" width="36" height="36" patternUnits="userSpaceOnUse"><circle cx="2" cy="2" r="1.5" fill="#FFFFFF" opacity="0.045"/></pattern>
</defs><rect width="1000" height="1000" fill="url(#bg)"/><rect width="1000" height="1000" fill="url(#dots)"/><path d="M950.0 240.0 L811.4 160.0 L811.4 -0.0 L950.0 -80.0 L1088.6 -0.0 L1088.6 160.0 Z" fill="none" stroke="#E9A23B" stroke-opacity="0.10" stroke-width="2"/><path d="M60.0 1060.0 L-43.9 1000.0 L-43.9 880.0 L60.0 820.0 L163.9 880.0 L163.9 1000.0 Z" fill="none" stroke="#E9A23B" stroke-opacity="0.07" stroke-width="2"/><circle cx="500" cy="460" r="350" fill="url(#glow)"/><rect x="210" y="250" width="580" height="420" rx="22" fill="url(#panel)" stroke="#2E4A64" stroke-width="2"/><line x1="210" y1="304" x2="790" y2="304" stroke="#284560" stroke-width="1.5"/><circle cx="236" cy="277" r="6" fill="#ED6A5E"/><circle cx="258" cy="277" r="6" fill="#F4BE4F"/><circle cx="280" cy="277" r="6" fill="#61C554"/><rect x="640" y="268" width="120" height="18" rx="9" fill="#E9A23B" opacity="0.18"/><line x1="244" y1="390" x2="574" y2="390" stroke="#FFFFFF" stroke-opacity="0.05" stroke-width="1"/><line x1="244" y1="440" x2="574" y2="440" stroke="#FFFFFF" stroke-opacity="0.05" stroke-width="1"/><line x1="244" y1="490" x2="574" y2="490" stroke="#FFFFFF" stroke-opacity="0.05" stroke-width="1"/><path d="M244 540 L244 470 L297 440 L350 456 L409 408 L462 420 L515 376 L574 356 L574 540 Z" fill="#E9A23B" opacity="0.10"/><polyline points="244,470 297,440 350,456 409,408 462,420 515,376 574,356" fill="none" stroke="url(#gold)" stroke-width="3" stroke-linecap="round" stroke-linejoin="round"/><circle cx="244" cy="470" r="4" fill="#0E2236" stroke="#F4BE68" stroke-width="2"/><circle cx="297" cy="440" r="4" fill="#0E2236" stroke="#F4BE68" stroke-width="2"/><circle cx="350" cy="456" r="4" fill="#0E2236" stroke="#F4BE68" stroke-width="2"/><circle cx="409" cy="408" r="4" fill="#0E2236" stroke="#F4BE68" stroke-width="2"/><circle cx="462" cy="420" r="4" fill="#0E2236" stroke="#F4BE68" stroke-width="2"/><circle cx="515" cy="376" r="4" fill="#0E2236" stroke="#F4BE68" stroke-width="2"/><circle cx="574" cy="356" r="4" fill="#0E2236" stroke="#F4BE68" stroke-width="2"/><circle cx="640" cy="400" r="46" fill="none" stroke="#28435C" stroke-width="9"/><path d="M640 354 A46 46 0 1 1 594.8 391.4" fill="none" stroke="url(#gold)" stroke-width="9" stroke-linecap="round"/><circle cx="732" cy="400" r="30" fill="none" stroke="#28435C" stroke-width="9"/><path d="M732 370 A30 30 0 1 1 711.5 421.9" fill="none" stroke="url(#gold)" stroke-width="9" stroke-linecap="round"/><rect x="244" y="560" width="30" height="40" rx="4" fill="#E9A23B" opacity="0.40"/><rect x="296" y="538" width="30" height="62" rx="4" fill="#E9A23B" opacity="0.49"/><rect x="348" y="570" width="30" height="30" rx="4" fill="#E9A23B" opacity="0.58"/><rect x="400" y="546" width="30" height="54" rx="4" fill="#E9A23B" opacity="0.67"/><rect x="452" y="554" width="30" height="46" rx="4" fill="#E9A23B" opacity="0.76"/><rect x="504" y="532" width="30" height="68" rx="4" fill="#E9A23B" opacity="0.85"/><rect x="620" y="480" width="120" height="8" rx="4" fill="#3A5670"/><rect x="620" y="506" width="96" height="8" rx="4" fill="#3A5670"/><rect x="620" y="532" width="72" height="8" rx="4" fill="#3A5670"/></svg>